<svg width="156" height="38" viewBox="0 0 156 38" fill="none" xmlns="http://www.w3.org/2000/svg">
<path d="M155.552 13.5058C155.552 14.1637 155.552 14.7892 155.552 15.4374C154.797 15.2959 154.058 15.1527 153.306 15.1937C151.7 15.2811 150.44 15.9699 149.661 17.4079C149.401 17.8885 149.261 18.4209 149.262 18.9863C149.269 22.7011 149.261 26.4159 149.273 30.1306C149.274 30.4378 149.182 30.4945 148.899 30.4914C147.582 30.4769 146.264 30.4796 144.947 30.4903C144.724 30.4921 144.659 30.4403 144.659 30.2088C144.666 24.0427 144.665 17.8766 144.659 11.7106C144.658 11.4832 144.716 11.424 144.943 11.426C146.228 11.4375 147.513 11.4382 148.798 11.4258C149.034 11.4235 149.08 11.4979 149.077 11.7166C149.064 12.5911 149.069 13.466 149.076 14.3406C149.076 14.4278 148.989 14.5764 149.163 14.6013C149.319 14.6235 149.279 14.4612 149.302 14.3931C149.889 12.7022 151.077 11.6668 152.795 11.2667C153.566 11.0872 154.366 11.1745 155.159 11.2117C155.611 11.2328 155.558 11.4419 155.554 11.7241C155.547 12.3071 155.552 12.8903 155.552 13.5058Z" fill="#923AFF"/>
<path d="M121.751 20.7161C121.73 20.5915 121.723 20.4837 121.723 20.376C121.723 15.3977 121.725 10.4193 121.715 5.44103C121.715 5.14866 121.784 5.06884 122.081 5.0729C123.377 5.09061 124.673 5.08828 125.968 5.07403C126.219 5.07128 126.265 5.14489 126.265 5.37962C126.257 9.51561 126.258 13.6516 126.253 17.8176C126.108 18.0207 125.894 18.0483 125.702 18.1072C125.259 18.2427 124.911 18.4898 124.672 18.8917C124.562 19.0769 124.429 19.2478 124.305 19.4244C124.053 19.7833 123.741 20.0333 123.295 20.1196C122.982 20.1801 122.739 20.3969 122.479 20.5713C122.268 20.7132 122.051 20.8826 121.751 20.7161Z" fill="#A843FF"/>
<path d="M104.126 26.481C103.845 25.6781 103.709 24.8671 103.708 24.0378C103.704 19.9448 103.708 15.8519 103.699 11.7589C103.698 11.4902 103.761 11.4209 104.032 11.4242C105.338 11.4398 106.645 11.4389 107.952 11.4248C108.201 11.4221 108.249 11.4946 108.248 11.7299C108.24 15.5852 108.241 19.4406 108.236 23.326C108.13 23.5012 107.973 23.5546 107.813 23.5714C107.483 23.6061 107.293 23.8008 107.164 24.0826C107.11 24.2001 107.053 24.3159 106.998 24.4329C106.865 24.7164 106.654 24.9079 106.339 24.9439C105.96 24.9873 105.728 25.1903 105.626 25.546C105.486 26.0326 105.186 26.3211 104.669 26.367C104.49 26.3829 104.344 26.5453 104.126 26.481Z" fill="#B642FC"/>
<path d="M102.25 24.4421C102.273 26.7981 102.336 29.1402 102.261 31.4779C102.205 33.2355 101.475 34.7514 100.119 35.9126C99.1011 36.7835 97.903 37.3084 96.6066 37.6107C95.7916 37.8007 94.9694 37.9367 94.1263 37.948C93.8205 37.9521 93.5124 38.0151 93.1722 37.9964C92.943 37.8412 92.9493 37.635 93.022 37.4359C93.1639 37.0474 93.2048 36.6876 92.8783 36.3602C92.7761 36.2577 92.7763 36.1043 92.7976 35.961C92.8245 35.7797 92.8606 35.5998 92.9246 35.428C93.0176 35.1787 93.0438 34.9481 92.8056 34.7567C92.7473 34.7098 92.7123 34.6383 92.7392 34.5348C93.1729 34.5106 93.5935 34.5286 94.0108 34.499C95.0397 34.426 95.996 34.1144 96.7704 33.4202C97.3979 32.8577 97.674 32.0956 97.7444 31.2604C97.7522 31.1682 97.7081 31.0652 97.807 30.9627C97.8708 30.8799 97.9334 30.827 98.0104 30.8278C98.5765 30.8331 98.7733 30.4285 98.8799 29.9885C98.9769 29.5884 99.0977 29.2008 99.2524 28.822C99.3241 28.6465 99.3407 28.5004 99.1653 28.3658C99.0087 28.2455 98.9777 28.0592 98.9798 27.8692C98.983 27.5846 99.0745 27.3207 99.1564 27.0522C99.3774 26.327 99.7885 25.6948 100.127 25.0272C100.193 24.8976 100.292 24.7869 100.431 24.7518C101.023 24.6024 101.624 24.5017 102.25 24.4421Z" fill="#B638F7"/>
<path d="M84.3611 19.8096C84.3188 18.9694 84.4712 18.165 84.6689 17.378C84.9466 16.2732 85.4141 15.2435 86.0722 14.3024C86.7089 13.3918 87.4923 12.6567 88.4661 12.1141C89.3513 11.6207 90.2877 11.338 91.2961 11.228C92.6226 11.0832 93.9008 11.19 95.0907 11.8271C95.8031 12.2086 96.4395 12.6975 96.8958 13.4133C96.9455 13.6061 96.8197 13.6819 96.7002 13.7129C96.3821 13.7954 96.2652 14.0359 96.1709 14.3094C96.0795 14.5746 95.9887 14.8411 95.8423 15.0827C95.7584 15.2211 95.6735 15.3604 95.5028 15.4539C95.309 15.5034 95.1662 15.4201 95.0147 15.3654C93.4637 14.8049 92.0025 14.9109 90.7253 16.0319C90.0193 16.6515 89.6286 17.4826 89.3683 18.3767C89.2847 18.6639 89.2696 18.974 89.0722 19.2487C88.9727 19.3022 88.8901 19.3426 88.8047 19.3326C88.2123 19.2636 87.6659 19.5285 87.0955 19.5687C86.4299 19.6157 85.778 19.7577 85.1138 19.7904C84.8703 19.8024 84.6316 19.9266 84.3611 19.8096Z" fill="#CB49FC"/>
<path d="M45.3428 23.7001C46.0347 21.6525 46.7414 19.6239 47.4575 17.5987C47.5478 17.3432 47.6612 17.0959 47.7472 16.8197C47.8579 16.7211 47.9661 16.6933 48.0889 16.6771C49.4243 16.5021 50.7224 16.7488 52.0186 17.0178C52.1347 17.0419 52.2467 17.0841 52.3499 17.1969C52.451 17.4056 52.383 17.5794 52.3264 17.7538C52.0834 18.5023 51.826 19.2462 51.5844 19.9952C51.4738 20.3379 51.4947 20.3691 51.8513 20.3701C52.9734 20.3734 54.0955 20.3702 55.2177 20.3722C55.3786 20.3725 55.5423 20.3551 55.7219 20.4318C55.8426 20.5843 55.9658 20.6403 56.1451 20.641C56.6219 20.6428 56.7143 20.7626 56.658 21.2479C56.6445 21.3642 56.6484 21.4813 56.6328 21.6232C56.6632 21.9082 56.5619 22.1343 56.4531 22.3576C56.3636 22.5413 56.2807 22.7277 56.2057 22.9178C56.1295 23.1107 55.9946 23.2616 55.7874 23.2806C55.2319 23.3314 54.8653 23.5882 54.7294 24.17C53.3214 24.1917 51.9316 24.1957 50.5417 24.1987C49.9803 24.1999 49.9803 24.1989 49.8147 24.7736C49.6396 24.8801 49.4812 24.8418 49.3241 24.8008C48.1183 24.4856 46.8975 24.23 45.6967 23.8948C45.5721 23.86 45.4444 23.8326 45.3428 23.7001Z" fill="#EC42F7"/>
<path d="M121.728 20.7292C122.02 20.7233 122.258 20.6065 122.472 20.4315C122.699 20.2456 122.941 20.0434 123.223 20.0094C123.762 19.9448 124.043 19.5856 124.32 19.1982C124.383 19.1108 124.45 19.0245 124.498 18.9292C124.851 18.2306 125.489 17.9857 126.223 17.8479C126.252 17.9445 126.259 18.0414 126.259 18.1383C126.259 22.1442 126.256 26.1501 126.265 30.1559C126.266 30.4231 126.205 30.4953 125.932 30.492C124.626 30.4764 123.319 30.4774 122.013 30.4919C121.762 30.4947 121.717 30.419 121.717 30.1854C121.726 27.0434 121.723 23.9013 121.728 20.7292Z" fill="#A03AFE"/>
<path d="M49.8735 10.8712C50.1828 9.91498 50.5024 8.9806 50.8263 8.04772C51.1477 7.12214 51.4738 6.19821 51.7966 5.27312C51.8423 5.14241 51.9042 5.07491 52.0677 5.07565C53.847 5.08377 55.6264 5.07991 57.4058 5.08399C57.484 5.08417 57.5812 5.02722 57.6329 5.17982C58.0376 6.37391 58.4557 7.56347 58.8849 8.7735C58.876 9.08046 58.8933 9.36997 58.8568 9.65784C58.8009 10.0987 58.603 10.2566 58.1583 10.1993C57.7016 10.1404 57.7185 10.1509 57.562 10.6025C57.3742 11.1445 57.0378 11.5709 56.4231 11.6383C56.0513 11.6791 55.791 11.96 55.4141 12.0225C55.2006 11.9756 55.1588 11.811 55.1037 11.6609C54.9819 11.3293 54.8916 10.9862 54.7267 10.5965C54.5547 11.062 54.4316 11.4807 54.288 11.8918C54.2282 12.0632 54.1914 12.2477 54.0192 12.3851C53.604 12.4539 53.2381 12.3594 52.8755 12.2088C52.1933 11.9254 51.5153 11.6317 50.8264 11.3651C50.4971 11.2377 50.1724 11.1046 49.8735 10.8712Z" fill="#EE4FFF"/>
<path d="M115.984 30.3053C115.962 29.3213 115.96 28.3516 115.952 27.382C115.951 27.2961 116.014 27.169 115.895 27.1275C115.742 27.0742 115.735 27.2316 115.697 27.3155C115.42 27.9398 115.038 28.5017 114.562 28.9799C113.832 29.7143 112.959 30.2342 111.942 30.4805C111.831 30.5073 111.728 30.5857 111.577 30.5543C111.392 30.4249 111.452 30.2642 111.502 30.1125C111.603 29.8046 111.748 29.5147 111.906 29.2338C112.324 28.491 112.676 27.7204 112.926 26.9046C112.975 26.7454 113.064 26.6143 113.214 26.4948C113.601 26.2564 113.992 26.0869 114.334 25.8057C115.087 25.1849 115.516 24.3926 115.69 23.4569C115.856 22.5649 115.723 21.6586 115.766 20.7295C116.054 20.4373 116.226 20.1023 116.384 19.7589C116.51 19.484 116.705 19.3088 117.017 19.2725C117.188 19.2525 117.359 19.2044 117.51 19.1229C118.04 18.8362 118.565 18.5432 119.147 18.3686C119.297 18.3235 119.391 18.1995 119.467 18.0635C119.604 17.8193 119.744 17.5763 119.898 17.3421C119.98 17.2176 120.06 17.0789 120.267 17.1202C120.289 19.4697 120.292 21.8043 120.291 24.169C120.157 24.3445 120.071 24.5207 119.948 24.6707C119.819 24.828 119.674 24.8972 119.516 24.7253C119.358 24.5531 119.311 24.669 119.215 24.795C118.51 25.7203 118.099 26.7997 117.587 27.8276C117.185 28.6354 116.725 29.4147 116.232 30.1725C116.179 30.2541 116.119 30.334 115.984 30.3053Z" fill="#A83EFD"/>
<path d="M72.3785 16.2072C71.5682 17.182 71.3029 18.3093 71.3652 19.5393C71.3728 19.6894 71.3655 19.8403 71.3604 20.0209C71.2566 20.1747 71.1176 20.1819 70.975 20.1852C69.8131 20.2121 68.6605 20.3374 67.5117 20.5072C67.3053 20.5378 67.1013 20.6684 66.8629 20.5245C66.8375 18.302 66.8336 16.0996 66.8304 13.8972C66.8293 13.1522 66.8358 12.4071 66.8261 11.6622C66.8238 11.4811 66.8726 11.4264 67.0577 11.4275C68.3533 11.4354 69.6491 11.4355 70.9447 11.4278C71.1297 11.4267 71.1782 11.4813 71.1764 11.6623C71.1676 12.5584 71.171 13.4547 71.1741 14.3508C71.1745 14.4527 71.1421 14.5615 71.2394 14.7172C71.9424 13.2123 72.9729 12.089 74.5793 11.5577C74.7793 11.6157 74.7723 11.7623 74.7575 11.9028C74.7359 12.1072 74.693 12.3095 74.5936 12.4915C74.4585 12.7389 74.3581 12.9939 74.3006 13.2732C74.2276 13.628 74.1076 13.7181 73.7394 13.712C73.4821 13.7077 73.3743 13.8597 73.293 14.0589C73.2233 14.2296 73.2093 14.4148 73.1644 14.5921C73.0715 14.9592 72.9409 15.076 72.5711 15.1251C72.2175 15.1721 71.9426 15.6259 72.0601 15.9654C72.1107 16.1116 72.2816 16.0874 72.3785 16.2072Z" fill="#E04BFC"/>
<path d="M138.205 15.584C137.239 14.668 136.091 14.5851 134.864 14.7261C133.899 14.8371 133.112 15.2447 132.465 15.9523C132.222 16.2186 132.006 16.5075 131.901 16.8569C131.842 17.0557 131.727 17.0916 131.548 17.0641C130.838 16.9554 130.128 16.8512 129.418 16.7461C128.802 16.6549 128.186 16.5648 127.548 16.471C127.923 15.1396 128.579 13.9972 129.618 13.1051C130.626 12.2388 131.813 11.7112 133.109 11.4336C134.146 11.2114 135.2 11.1095 136.257 11.1801C137.62 11.2711 138.957 11.5156 140.188 12.1484C140.646 12.3839 141.092 12.6491 141.483 13.0244C141.586 13.1954 141.496 13.3117 141.416 13.4269C141.23 13.6986 140.963 13.8705 140.65 13.9282C139.83 14.0791 139.208 14.5131 138.716 15.1725C138.591 15.3401 138.45 15.5153 138.205 15.584Z" fill="#9E40FF"/>
<path d="M138.19 15.6074C138.55 15.1847 138.905 14.7683 139.292 14.3843C139.623 14.0555 140.072 13.9429 140.514 13.8469C140.964 13.749 141.296 13.5173 141.488 13.0676C142.457 13.8756 143.007 14.9297 143.246 16.1759C143.452 17.2513 143.326 18.3309 143.362 19.4379C142.744 20.1871 142.129 20.9056 141.495 21.607C141.302 21.8204 141.048 21.9377 140.779 22.025C140.246 22.1975 139.717 22.3749 139.233 22.6667C139.107 22.743 138.964 22.8143 138.791 22.7055C138.649 22.4544 138.709 22.2023 138.703 21.9586C138.699 21.7999 138.688 21.7156 138.488 21.7827C137.238 22.2029 135.928 22.3157 134.635 22.5102C134.359 22.5516 134.091 22.6424 133.784 22.6323C133.587 22.5357 133.637 22.3941 133.69 22.2646C133.771 22.0655 133.865 21.8659 134.014 21.7106C134.744 20.9515 135.378 20.1084 136.096 19.339C136.17 19.26 136.251 19.19 136.351 19.1059C136.716 18.9555 137.093 18.9819 137.448 18.885C137.943 18.7495 138.498 18.6696 138.737 18.1473C138.93 17.7256 138.866 17.2504 138.765 16.7991C138.668 16.3657 138.516 15.9559 138.19 15.6074Z" fill="#973CFF"/>
<path d="M95.4252 15.4406C95.7299 15.1581 95.8671 14.7975 95.9943 14.4355C96.1329 14.0411 96.2356 13.626 96.7582 13.5711C96.8019 13.5665 96.84 13.5078 96.8926 13.4542C97.1594 13.7147 97.3525 14.0371 97.5291 14.3695C97.5754 14.4565 97.6063 14.5614 97.7271 14.537C97.871 14.5079 97.8042 14.3798 97.8047 14.2992C97.8102 13.4257 97.8143 12.5521 97.8034 11.6787C97.8009 11.4813 97.8496 11.4251 98.0522 11.4266C99.3786 11.4364 100.705 11.4383 102.032 11.4256C102.267 11.4233 102.284 11.517 102.284 11.7065C102.278 13.9928 102.279 16.2791 102.274 18.5954C102.143 18.8087 101.944 18.8721 101.745 18.9203C101.516 18.9761 101.356 19.1051 101.27 19.3187C101.013 19.9573 100.52 20.2712 99.8707 20.4449C99.3855 20.5748 98.9419 20.8476 98.4317 20.9168C98.2277 20.9444 98.026 20.9859 97.8074 20.8761C97.6565 20.7049 97.6898 20.5158 97.6784 20.3353C97.6255 19.4939 97.4962 18.6657 97.2097 17.87C96.8961 16.9993 96.3911 16.2621 95.643 15.7026C95.5569 15.6383 95.4704 15.5722 95.4252 15.4406Z" fill="#BD45FC"/>
<path d="M95.0366 29.6117C94.286 29.9757 93.5136 30.1296 92.7005 30.1697C91.5371 30.227 90.4096 30.1086 89.311 29.7112C87.7359 29.1413 86.5465 28.115 85.6785 26.6947C85.4642 26.344 85.2752 25.9819 85.1123 25.5837C85.168 25.4648 85.2585 25.4076 85.3549 25.4181C85.6336 25.4483 85.6994 25.2587 85.805 25.0609C85.9853 24.7235 86.1591 24.351 86.6361 24.3463C86.7608 24.345 86.7968 24.2476 86.8204 24.1529C86.928 23.7209 87.2858 23.4617 87.5275 23.1226C87.5584 23.0792 87.6088 23.0349 87.6596 23.0346C88.2603 23.031 88.3782 22.4697 88.6942 22.1397C88.767 22.0637 88.8036 21.9531 88.9384 21.9106C89.1187 21.9811 89.1136 22.132 89.135 22.2672C89.2605 23.0595 89.4754 23.8231 89.8844 24.5197C90.6249 25.7807 91.7207 26.4434 93.1922 26.4676C93.6452 26.4751 94.0955 26.4684 94.5366 26.3451C94.6394 26.3164 94.7483 26.3014 94.8767 26.3558C94.9779 26.4415 95.0037 26.5414 94.9819 26.6356C94.8494 27.2088 95.2472 27.512 95.6044 27.8088C96.0124 28.1478 96.0495 28.661 95.596 28.9506C95.3331 29.1185 95.1586 29.3146 95.0366 29.6117Z" fill="#C53EF6"/>
<path d="M28.7059 3.27417C29.391 3.56272 30.0566 3.86616 30.721 4.17211C32.1269 4.81946 33.5291 5.47501 34.941 6.10905C35.1597 6.20727 35.2228 6.32431 35.2072 6.54324C35.1404 7.47776 35.1163 8.4149 35.0151 9.34756C34.9785 9.68567 34.9711 10.0307 34.9621 10.3685C34.9471 10.9256 34.8966 11.4806 34.8684 12.0357C34.8149 13.0893 34.7439 14.1427 34.6738 15.1956C34.6364 15.7573 34.614 16.3214 34.55 16.9112C34.4696 17.0052 34.4051 16.9643 34.3446 16.9158C34.2673 16.8539 34.2059 16.7735 34.1776 16.6817C33.9338 15.8907 33.4798 15.2129 33.0625 14.5089C32.7226 13.9356 32.4196 13.3414 32.0165 12.8069C31.9516 12.7209 31.8933 12.6301 31.8637 12.4984C31.5463 11.7055 31.1988 10.952 30.8447 10.2018C30.696 9.88675 30.5685 9.56876 30.5173 9.22348C30.404 8.45969 30.1251 7.74481 29.8822 7.01787C29.5092 5.9018 29.119 4.79243 28.6964 3.6943C28.6458 3.56284 28.6004 3.42712 28.7059 3.27417Z" fill="#FA43EA"/>
<path d="M34.272 20.5508C34.3303 21.2666 34.2007 21.9543 34.1765 22.646C34.1346 23.8428 34.0167 25.0341 33.9616 26.2373C33.8195 26.226 33.8214 26.0898 33.7832 26.008C32.9574 24.2413 32.1394 22.4709 31.3164 20.7028C30.5331 19.02 29.7452 17.3394 28.9605 15.6573C28.4108 14.4792 27.8618 13.3009 27.3147 12.1217C26.4412 10.2389 25.5702 8.355 24.6966 6.47224C24.2908 5.59751 23.8812 4.72456 23.4748 3.85007C23.4443 3.78445 23.3869 3.72545 23.4049 3.61776C23.5705 3.44935 23.6874 3.57149 23.7813 3.68607C24.2672 4.2785 24.8175 4.81427 25.2931 5.41542C25.3065 5.43234 25.3233 5.4475 25.3327 5.46648C25.7706 6.34841 26.4319 7.09047 26.8919 7.95847C26.9374 8.04425 26.9671 8.14156 27.0274 8.21583C27.6279 8.95556 28.0417 9.81617 28.5769 10.5976C28.7844 10.9006 29.005 11.1918 29.1273 11.5443C29.1693 11.6653 29.2263 11.7844 29.3491 11.8854C29.5903 12.27 29.8099 12.6411 30.0082 13.0241C30.1421 13.2828 30.2316 13.575 30.4107 13.7979C31.1196 14.6807 31.5049 15.7484 32.1044 16.6919C32.2963 16.9938 32.477 17.3025 32.5897 17.6404C32.7936 18.2518 33.1554 18.778 33.4637 19.3334C33.5004 19.3994 33.5417 19.4636 33.601 19.5122C33.9297 19.7815 34.114 20.1435 34.272 20.5508Z" fill="#F93BDA"/>
<path d="M82.6103 14.2684C83.0528 15.0446 83.3138 15.8602 83.4186 16.7204C83.6694 18.7777 83.5065 20.8449 83.5446 22.9374C83.4052 23.1049 83.2481 23.2179 83.1259 23.3705C83.034 23.4851 82.8931 23.5439 82.7491 23.5137C82.4102 23.4424 82.059 23.5098 81.7247 23.4147C81.5151 23.3551 81.3456 23.3877 81.2159 23.5774C81.1613 23.6573 81.0843 23.7296 80.9893 23.7531C80.3928 23.9009 79.7921 24.0132 79.1736 23.9114C79.1308 23.9043 79.0954 23.8768 79.0439 23.8289C79.0213 22.2471 79.0367 20.684 79.0064 19.1217C78.9901 18.2789 78.8752 17.4446 78.4357 16.6902C78.2905 16.4411 78.1258 16.2136 77.9135 15.9917C78.1733 15.6832 78.5485 15.6331 78.8982 15.5952C79.2549 15.5567 79.4803 15.4445 79.5738 15.0838C79.6479 14.7978 79.8545 14.6518 80.1487 14.5891C80.7786 14.455 81.4138 14.3512 82.0466 14.2343C82.2237 14.2015 82.4099 14.1829 82.6103 14.2684Z" fill="#D145F9"/>
<path d="M95.0445 29.6299C94.9862 29.2706 95.0895 29.0239 95.4798 28.9026C95.7561 28.8168 95.7864 28.4955 95.8361 28.2571C95.8735 28.0779 95.6553 28.0177 95.5151 27.918C95.2819 27.7522 95.045 27.5435 94.9126 27.2975C94.7798 27.0508 94.8161 26.736 94.8902 26.4226C94.8857 26.2429 95.0106 26.1988 95.1122 26.1512C96.5191 25.4927 97.1681 24.2879 97.4838 22.8502C97.6012 22.3152 97.6818 21.7722 97.6817 21.2208C97.6817 21.0922 97.6828 20.9608 97.7972 20.8416C98.4106 20.8394 98.9724 20.7186 99.4946 20.4378C99.688 20.3339 99.8978 20.2927 100.106 20.2404C100.464 20.1507 100.824 19.9719 100.94 19.6435C101.166 19.0077 101.627 18.7546 102.245 18.6267C102.273 20.5497 102.276 22.4739 102.274 24.4282C101.79 24.6696 101.272 24.7072 100.763 24.7828C100.479 24.8249 100.257 24.9093 100.165 25.2307C100.096 25.4717 99.9926 25.6986 99.7702 25.8793C99.6339 25.99 99.6115 26.244 99.5439 26.4357C99.373 26.9207 99.1005 27.3742 99.1019 27.9128C99.1024 28.1 99.1255 28.2538 99.3252 28.3304C99.4505 28.3785 99.5322 28.4835 99.4741 28.6118C99.2335 29.1428 99.0828 29.7022 98.9247 30.26C98.7745 30.7905 98.4174 31.009 97.8478 30.9388C97.816 29.7539 97.8156 28.5691 97.8034 27.3843C97.8023 27.2769 97.9033 27.0947 97.72 27.0628C97.5788 27.0383 97.5452 27.2183 97.4864 27.318C97.033 28.0871 96.457 28.7419 95.7129 29.2405C95.5047 29.38 95.2829 29.4994 95.0445 29.6299Z" fill="#BC40FA"/>
<path d="M136.34 19.0852C136.382 19.2382 136.283 19.3243 136.193 19.4184C135.463 20.1783 134.845 21.0374 134.101 21.7864C133.908 21.9804 133.789 22.2474 133.713 22.5443C133.654 22.7399 133.488 22.7539 133.352 22.8079C132.871 22.9998 132.393 23.1941 132.022 23.5765C131.545 24.0684 131.402 24.665 131.472 25.3274C131.49 25.4975 131.551 25.6638 131.505 25.8618C131.216 26.2705 130.823 26.4903 130.371 26.591C129.943 26.6864 129.664 26.9314 129.494 27.3247C129.421 27.4928 129.313 27.6432 129.225 27.8042C128.972 28.2694 128.567 28.4959 128.03 28.552C127.438 27.9024 127.187 27.1211 127.036 26.2953C126.918 25.6546 126.935 25.0041 126.984 24.3667C127.104 22.8088 127.808 21.5717 129.163 20.7407C130.257 20.0694 131.462 19.7355 132.718 19.5217C133.534 19.3827 134.352 19.2893 135.174 19.2042C135.553 19.1648 135.929 19.0907 136.34 19.0852Z" fill="#9B3BFF"/>
<path d="M143.339 24.1842C143.361 26.2279 143.363 28.2569 143.371 30.2858C143.371 30.439 143.328 30.4888 143.171 30.4881C141.854 30.4828 140.537 30.4812 139.221 30.4895C139.024 30.4907 139.024 30.3939 139.024 30.2513C139.028 29.5605 139.026 28.8697 139.026 28.1789C139.026 28.0756 139.026 27.9722 139.026 27.7679C137.24 30.7095 134.58 31.1672 131.535 30.6738C131.383 30.4522 131.552 30.3264 131.668 30.197C131.947 29.8834 132.262 29.6048 132.538 29.286C133.039 28.7058 133.459 28.0719 133.855 27.3932C134.248 27.3305 134.621 27.3838 134.995 27.3457C135.544 27.2898 136.056 27.1098 136.606 26.9656C136.898 27.0756 137.135 26.9372 137.38 26.8725C137.557 26.8259 137.727 26.7453 137.915 26.7548C138.194 26.7689 138.301 26.9439 138.176 27.1953C138.027 27.4956 137.78 27.7324 137.609 28.0259C138.155 28.0373 138.62 27.8126 138.92 27.3968C138.932 27.3793 138.948 27.3632 138.958 27.3443C139.437 26.445 140.154 25.9061 141.192 25.7905C141.786 25.7244 142.127 25.244 142.498 24.8407C142.659 24.6662 142.806 24.4784 142.982 24.3192C143.078 24.2336 143.171 24.1346 143.339 24.1842Z" fill="#9135FF"/>
<path d="M113.208 26.474C112.851 27.5988 112.381 28.6798 111.808 29.717C111.675 29.9579 111.538 30.2096 111.55 30.5305C111.414 30.6828 111.22 30.6509 111.075 30.6617C109.913 30.7484 108.755 30.7412 107.643 30.3116C105.85 29.6188 104.713 28.3158 104.108 26.4911C104.374 26.3325 104.642 26.2155 104.951 26.1805C105.168 26.1559 105.338 26.0136 105.4 25.771C105.44 25.616 105.518 25.4712 105.576 25.3208C105.683 25.0445 105.877 24.8694 106.175 24.853C106.584 24.8304 106.827 24.6174 106.956 24.2449C106.984 24.1638 107.018 24.0843 107.054 24.0068C107.2 23.701 107.393 23.4641 107.774 23.4535C107.911 23.4497 108.046 23.3921 108.207 23.3577C108.354 24.0612 108.511 24.7507 108.95 25.3447C109.588 26.2071 110.43 26.6758 111.504 26.7274C112.082 26.7552 112.645 26.6993 113.208 26.474Z" fill="#AE3BFB"/>
<path d="M54.7413 24.1928C54.712 23.5539 54.8998 23.3259 55.5549 23.2168C55.8678 23.1646 56.0769 23.0576 56.1575 22.7094C56.236 22.3701 56.5093 22.0932 56.526 21.6971C56.7331 21.4652 56.9939 21.5336 57.2325 21.5552C57.422 21.5724 57.5877 21.5215 57.7664 21.4936C58.3692 21.3994 58.9671 21.229 59.5862 21.2915C60.2601 21.3595 60.9355 21.4243 61.6118 21.4001C62.1465 21.381 62.659 21.5231 63.1853 21.5506C63.2507 21.5541 63.3088 21.5869 63.3802 21.6506C63.7011 22.2657 63.8656 22.9128 64.0991 23.5339C64.4659 24.5096 64.7968 25.4988 65.1386 26.5069C64.7497 26.6295 64.4377 26.9561 64.0658 26.9935C63.6903 27.0313 63.3001 27.0516 62.9155 27.0534C62.8083 27.0539 62.6956 27.0395 62.5962 27.0804C61.8439 27.3899 61.1256 27.1577 60.3828 26.9357C60.0968 26.1189 59.8282 25.3189 59.5724 24.5148C59.4994 24.2852 59.3973 24.1872 59.1291 24.1904C57.6767 24.2078 56.2239 24.1981 54.7413 24.1928Z" fill="#E742F5"/>
<path d="M0.2987 10.7373C0.183658 9.64901 0.119193 8.57756 0.0667755 7.50467C0.0534185 7.23128 0.0396602 6.95287 0.00761037 6.67983C-0.0322032 6.34064 0.0801699 6.13193 0.440129 6.04932C1.13717 6.25711 1.74763 6.60183 2.35906 6.94151C4.38991 8.06976 6.3389 9.32169 8.139 10.7964C8.21373 10.8576 8.29931 10.9076 8.35255 11.0216C7.88588 12.0947 7.40873 13.1467 6.91103 14.2101C6.77101 14.3149 6.66228 14.2508 6.56297 14.1885C5.55645 13.5572 4.45211 13.1115 3.42038 12.5274C2.4735 11.9913 1.49812 11.5067 0.554861 10.9635C0.460481 10.9091 0.367711 10.856 0.2987 10.7373Z" fill="#FB2C92"/>
<path d="M120.29 17.1048C120 17.2077 119.933 17.4826 119.839 17.6897C119.578 18.2639 119.18 18.6148 118.546 18.7128C118.377 18.739 118.219 18.8693 118.067 18.9679C117.72 19.1924 117.355 19.3643 116.938 19.4061C116.764 19.4237 116.641 19.5085 116.564 19.6709C116.455 19.9042 116.333 20.1317 116.22 20.3639C116.136 20.5381 116.015 20.6626 115.794 20.6983C115.767 19.1987 115.762 17.6981 115.76 16.1975C115.759 14.6967 115.764 13.1959 115.755 11.6951C115.754 11.4851 115.808 11.4251 116.021 11.4267C117.36 11.4366 118.699 11.437 120.038 11.4265C120.256 11.4248 120.302 11.4923 120.301 11.6977C120.293 13.4901 120.296 15.2824 120.29 17.1048Z" fill="#AC43FE"/>
<path d="M9.15039 30.3121C9.44548 29.5473 9.74677 28.8065 10.0589 28.0441C10.2448 27.8891 10.4032 27.9881 10.55 28.0721C10.9437 28.2975 11.341 28.5192 11.7467 28.7186C13.2472 29.4562 14.7573 30.1732 16.3034 30.8141C17.1605 31.1695 17.9921 31.5859 18.8187 32.0091C19.0603 32.1327 19.3077 32.2329 19.5757 32.2864C20.2127 32.4137 20.7546 32.7609 21.3135 33.0635C21.8262 33.3412 22.3506 33.5969 22.8541 33.8916C22.9653 33.9567 23.0887 34.0066 23.1526 34.1583C22.4918 34.5688 21.8271 34.9554 21.1619 35.3409C21.0441 35.4092 20.9239 35.4732 20.7816 35.5414C20.651 35.5666 20.544 35.5626 20.4419 35.5233C19.184 35.04 17.8717 34.687 16.6766 34.0543C15.3703 33.3627 14.039 32.7208 12.7384 32.0173C11.7827 31.5004 10.8045 31.0139 9.7638 30.6733C9.54498 30.6017 9.29541 30.5618 9.15039 30.3121Z" fill="#F5174E"/>
<path d="M79.0201 23.8399C79.6485 23.8393 80.2659 23.7915 80.8803 23.6808C81.0202 23.6556 81.0802 23.5695 81.1338 23.4611C81.2148 23.2973 81.3689 23.187 81.5254 23.2401C81.8999 23.3673 82.2953 23.2659 82.6626 23.3791C82.8795 23.4459 83.0244 23.395 83.11 23.1945C83.1842 23.0208 83.3039 22.9447 83.5147 22.9676C83.5434 25.4074 83.5456 27.8473 83.5533 30.2871C83.5538 30.4416 83.5094 30.4886 83.3536 30.488C81.9716 30.4827 80.5895 30.48 79.2076 30.4898C78.9716 30.4915 79.0148 30.3529 79.0148 30.2187C79.0147 28.1024 79.015 25.9862 79.0201 23.8399Z" fill="#CE3FF4"/>
<path d="M82.631 14.2607C81.8059 14.4139 80.9817 14.558 80.1599 14.7186C79.8979 14.7698 79.7679 14.8782 79.6905 15.1249C79.5186 15.6726 79.4899 15.6586 78.921 15.7188C78.5943 15.7533 78.2772 15.8783 77.9303 15.967C77.284 15.41 76.5656 15.1194 75.7209 15.0492C74.7276 14.9666 73.8283 15.1673 73.0033 15.7107C72.7929 15.8492 72.6084 16.027 72.4025 16.2073C71.9042 16.2223 71.876 16.1897 71.946 15.7125C72.04 15.0723 72.0396 15.0686 72.6888 14.9971C72.8669 14.9775 72.9626 14.8849 73 14.7225C73.0456 14.5243 73.0799 14.3234 73.1245 14.1249C73.219 13.7037 73.4165 13.5594 73.8492 13.6122C73.9938 13.6298 74.1179 13.5747 74.1244 13.4564C74.1555 12.8818 74.581 12.4426 74.6449 11.8817C74.6562 11.7827 74.6711 11.6917 74.6145 11.5776C75.0014 11.3534 75.4414 11.3209 75.8678 11.2406C76.386 11.1429 76.9148 11.1457 77.4365 11.1785C78.8139 11.2654 80.0872 11.6412 81.1907 12.5262C81.7902 13.007 82.2226 13.6064 82.631 14.2607Z" fill="#D84CFD"/>
<path d="M63.3992 21.6433C62.6808 21.6932 61.975 21.4719 61.2517 21.5275C60.5545 21.5811 59.8651 21.3532 59.1784 21.429C58.6657 21.4856 58.1265 21.4587 57.6402 21.6939C57.5381 21.7433 57.4319 21.7426 57.3251 21.7105C57.0818 21.6375 56.8323 21.6852 56.556 21.6712C56.4886 21.49 56.4808 21.3086 56.5449 21.1323C56.6476 20.8498 56.5253 20.7687 56.2556 20.7575C56.0769 20.7501 55.8213 20.8812 55.7499 20.5408C55.8457 20.3604 56.0055 20.3767 56.1536 20.3751C56.6713 20.3697 57.1894 20.3641 57.7068 20.3769C57.9638 20.3833 57.9933 20.2978 57.9169 20.072C57.5471 18.9795 57.1834 17.8848 56.8211 16.7897C56.7574 16.5969 56.6668 16.4069 56.7202 16.1676C56.9016 15.8742 57.1616 15.8802 57.42 15.9456C57.7003 16.0165 57.9464 16.0383 58.1269 15.7527C58.1781 15.6716 58.2768 15.6112 58.3724 15.6096C58.8746 15.6007 59.357 15.3554 59.8719 15.4913C60.0341 15.5341 60.1836 15.4794 60.3328 15.3965C60.5943 15.2513 60.8711 15.1751 61.1781 15.365C61.5124 16.2507 61.8307 17.117 62.1367 17.9877C62.5613 19.196 62.9765 20.4075 63.3992 21.6433Z" fill="#E747FA"/>
<path d="M8.37305 11.0216C7.93818 10.8865 7.6251 10.5638 7.28533 10.2901C5.62487 8.95304 3.78906 7.89351 1.94232 6.84634C1.46468 6.5755 0.922636 6.43229 0.475586 6.06575C1.28478 5.65985 2.10455 5.27192 2.92604 4.8877C3.57895 4.58232 4.23397 4.28148 4.91188 3.97534C5.22229 4.0389 5.41859 4.25039 5.63078 4.42652C6.07932 4.79883 6.54198 5.14924 7.05523 5.42617C8.06474 5.97085 8.94616 6.6976 9.85825 7.38106C9.90175 7.41366 9.93845 7.4525 9.97297 7.52283C9.90694 7.93874 9.66336 8.26249 9.50865 8.62425C9.16429 9.42944 8.76188 10.2098 8.37305 11.0216Z" fill="#FC30A0"/>
<path d="M92.726 34.5097C93.2241 34.8309 93.1724 35.2347 92.9821 35.6913C92.865 35.9721 92.8476 36.2491 93.1377 36.4994C93.3623 36.6932 93.2954 36.9941 93.2064 37.2578C93.131 37.4813 93.0322 37.7012 93.1412 37.9668C91.0205 37.9393 88.9796 37.5768 87.2151 36.3002C86.1877 35.5569 85.433 34.5785 84.9942 33.376C84.9452 33.2416 84.8735 33.1238 85.1465 33.0637C86.3547 32.7976 87.5531 32.4869 88.7545 32.1897C88.9417 32.1434 89.0564 32.1757 89.1665 32.3663C89.8625 33.5717 90.9203 34.2467 92.2928 34.4384C92.4287 34.4574 92.5546 34.5355 92.726 34.5097Z" fill="#C437F0"/>
<path d="M9.12373 30.2996C9.83282 30.5648 10.5342 30.8144 11.2071 31.1255C12.0358 31.5086 12.8595 31.9063 13.6526 32.3622C13.7365 32.4104 13.8196 32.4603 13.9055 32.5049C14.7854 32.9609 15.6832 33.3807 16.5534 33.8569C17.6826 34.4751 18.9291 34.8081 20.1201 35.2766C20.3201 35.3553 20.5174 35.4409 20.7371 35.5334C19.7452 36.1315 18.7314 36.7184 17.7202 37.3097C17.6322 37.3612 17.5746 37.3513 17.4886 37.3018C15.6004 36.2159 13.7109 35.1322 11.819 34.0527C10.7903 33.4658 9.76314 32.8755 8.72123 32.3127C8.42442 32.1524 8.37745 32.0162 8.5259 31.7145C8.74875 31.2617 8.91378 30.7804 9.12373 30.2996Z" fill="#F4133F"/>
<path d="M23.1797 34.1805C22.3117 33.7284 21.4671 33.2739 20.6221 32.8203C20.3266 32.6617 20.0221 32.5085 19.6952 32.446C19.2848 32.3676 18.9195 32.1975 18.5538 32.0123C16.707 31.077 14.781 30.3142 12.9087 29.4332C12.1272 29.0654 11.3836 28.6351 10.6177 28.243C10.4555 28.16 10.3042 28.0504 10.0931 28.0235C10.0879 27.9625 10.1074 27.903 10.1246 27.8427C10.1916 27.6072 10.3057 27.4908 10.5918 27.4952C11.9277 27.5158 13.2641 27.505 14.6305 27.5101C16.0454 28.1899 17.4271 28.8704 18.7494 29.6655C20.3747 30.6428 21.9635 31.6821 23.6492 32.5573C23.9081 32.6917 24.1437 32.8647 24.3678 33.0513C24.4656 33.1327 24.5789 33.2121 24.5274 33.3895C24.0766 33.6654 23.6398 33.9219 23.1797 34.1805Z" fill="#F41959"/>
<path d="M66.8363 20.5345C67.3673 20.4176 67.8911 20.3129 68.4198 20.2477C69.3745 20.1298 70.3318 20.0306 71.3263 20.051C71.3591 21.9752 71.3622 23.8994 71.3607 25.8537C71.2802 25.9726 71.1788 26.0102 71.0679 25.9994C70.3532 25.9302 69.6352 25.9119 68.9196 25.8514C68.3864 25.8063 67.8525 25.7375 67.3141 25.7583C67.1667 25.764 67.0099 25.7813 66.8627 25.6464C66.8379 23.9378 66.8346 22.2512 66.8363 20.5345Z" fill="#DD43F6"/>
<path d="M49.8506 10.8711C50.4844 11.0975 51.1059 11.3521 51.7276 11.601C52.4446 11.8882 53.1348 12.2904 53.9617 12.3377C54.126 12.4753 54.049 12.6249 54.0002 12.7608C53.508 14.1325 53.0699 15.5224 52.6025 16.9024C52.5549 17.043 52.5224 17.1984 52.3424 17.2734C51.8404 17.0482 51.3032 17.0938 50.8148 16.9385C49.8284 16.6248 48.8254 16.8417 47.7998 16.8088C48.0091 16.1099 48.2455 15.4105 48.4901 14.7139C48.9375 13.4396 49.3897 12.1669 49.8506 10.8711Z" fill="#F048FD"/>
<path d="M61.1961 15.3571C60.871 15.3909 60.5275 15.3284 60.2591 15.6063C60.2231 15.6436 60.1298 15.6565 60.0754 15.64C59.5465 15.4801 59.0371 15.7129 58.5171 15.7082C58.3528 15.7068 58.2212 15.7467 58.1538 15.9137C58.0513 16.168 57.8539 16.1825 57.6209 16.1301C57.355 16.0703 57.0843 15.9287 56.7992 16.1535C56.5987 16.1504 56.5684 16.0006 56.5248 15.8737C56.117 14.6863 55.7338 13.4906 55.3257 12.3033C55.2906 12.201 55.2648 12.0964 55.3337 11.9716C55.7059 11.8653 55.9507 11.55 56.3426 11.5185C56.9763 11.4676 57.3056 11.0511 57.4629 10.4704C57.5971 9.97472 57.6071 9.96847 58.1324 10.0658C58.6046 10.1533 58.707 10.0624 58.732 9.56459C58.7444 9.31963 58.7726 9.07413 58.8835 8.81763C59.4998 10.4898 60.1007 12.1868 60.6986 13.8849C60.8678 14.3655 61.0282 14.8493 61.1961 15.3571Z" fill="#EA4CFE"/>
<path d="M143.362 24.169C143.073 24.3104 142.905 24.5593 142.716 24.7731C142.574 24.9344 142.42 25.0856 142.287 25.2533C141.921 25.7142 141.423 25.9343 140.865 26.0011C140.177 26.0834 139.683 26.4246 139.337 27.0078C139.321 27.0356 139.3 27.0609 139.282 27.0877C138.687 27.9719 138.482 28.0978 137.374 28.244C137.375 28.0514 137.515 27.9356 137.604 27.8016C137.733 27.6042 137.892 27.4254 138.02 27.2268C138.077 27.138 138.226 27.046 138.12 26.9211C138.027 26.8109 137.88 26.8482 137.755 26.8829C137.527 26.9462 137.301 27.0184 137.073 27.0851C136.958 27.119 136.842 27.137 136.709 27.0596C136.695 26.8273 136.884 26.7726 137.019 26.6809C137.909 26.0779 138.494 25.2724 138.677 24.1999C138.734 23.8685 138.691 23.5323 138.703 23.1986C138.709 23.0386 138.685 22.872 138.82 22.721C139.55 22.3186 140.316 22.07 141.064 21.7748C141.516 21.5964 141.744 21.1347 142.057 20.7852C142.4 20.4022 142.725 20.0034 143.066 19.6193C143.126 19.5517 143.23 19.5227 143.336 19.4719C143.361 21.0249 143.364 22.5819 143.362 24.169Z" fill="#923AFF"/>
<path d="M66.8362 25.6546C68.3336 25.6092 69.814 25.7994 71.3284 25.884C71.3596 27.352 71.3611 28.8201 71.3697 30.2881C71.3706 30.4434 71.3244 30.4888 71.1694 30.4882C69.7875 30.483 68.4055 30.4803 67.0236 30.4901C66.7877 30.4918 66.8309 30.3534 66.8309 30.2192C66.8308 28.7077 66.8311 27.1962 66.8362 25.6546Z" fill="#DB3DEE"/>
<path d="M88.957 21.9037C88.8212 22.3844 88.3658 22.6218 88.1993 23.05C88.1504 23.1758 88.0307 23.1544 87.9189 23.1191C87.7354 23.0613 87.629 23.1394 87.5245 23.3008C87.2945 23.6562 86.9135 23.9187 86.8795 24.393C86.875 24.4545 86.808 24.5263 86.7408 24.502C86.2625 24.3292 86.1449 24.7452 85.9666 25.0018C85.6674 25.4322 85.6877 25.4464 85.1413 25.5587C84.8118 24.9682 84.6563 24.3252 84.5308 23.6818C84.3271 22.6374 84.257 21.5761 84.2663 20.5115C84.2683 20.2904 84.3074 20.0695 84.3342 19.8202C85.1483 19.638 85.963 19.5138 86.7855 19.476C87.1227 19.4604 87.4413 19.3677 87.7568 19.2914C88.1721 19.1909 88.5762 19.1721 89.0204 19.2087C89.1808 19.317 89.1432 19.4685 89.1236 19.5977C89.0284 20.2252 89.0824 20.856 89.0648 21.4851C89.061 21.6227 89.0783 21.7657 88.957 21.9037Z" fill="#CA43F9"/>
<path d="M34.2915 20.5427C34.2392 20.5465 34.1702 20.5357 34.1484 20.4977C33.6118 19.5662 32.8247 18.7856 32.4927 17.7299C32.3498 17.2757 32.1034 16.8711 31.8165 16.4916C31.7518 16.406 31.6789 16.3196 31.6415 16.2214C31.1006 14.8045 30.0796 13.6562 29.4477 12.2908C29.4026 12.1934 29.3662 12.0921 29.3163 11.9716C29.1153 11.6867 28.9822 11.4004 28.9632 11.0689C28.9558 10.9388 28.9133 10.817 28.8578 10.7007C28.7239 10.4201 28.5923 10.1458 28.6253 9.81421C28.6422 9.64516 28.5097 9.49677 28.4481 9.33774C28.3838 9.17175 28.338 9.0072 28.5301 8.85931C28.7304 8.79608 28.8719 8.87906 28.9932 8.98907C29.72 9.64789 30.4572 10.2964 30.8948 11.2068C31.0195 11.4662 31.177 11.7054 31.4784 11.8245C31.7387 11.9273 31.7598 12.2447 31.9472 12.4521C31.9736 12.6239 32.0963 12.7168 32.1809 12.8203C32.6568 13.4018 32.9117 14.1158 33.331 14.7258C33.7202 15.2917 34.0391 15.879 34.2381 16.5343C34.2855 16.6904 34.3669 16.8298 34.5245 16.9346C34.4841 17.8055 34.4762 18.6739 34.3682 19.5362C34.343 19.7371 34.3612 19.9435 34.362 20.1474C34.3625 20.2744 34.3726 20.4023 34.2915 20.5427Z" fill="#F93DE2"/>
<path d="M45.3198 23.7048C46.3389 23.9292 47.3527 24.1786 48.3666 24.4276C48.8264 24.5405 49.2863 24.6524 49.7695 24.7751C49.5638 25.6428 49.2426 26.4704 48.9718 27.3143C48.7871 27.8903 48.5971 28.4646 48.3877 29.0511C48.2634 29.1495 48.1434 29.1412 48.029 29.108C46.774 28.7433 45.4798 28.5058 44.281 27.9578C44.1639 27.9043 44.0403 27.862 43.9563 27.7209C44.0832 27.0928 44.3418 26.5297 44.5375 25.9455C44.786 25.2034 45.0546 24.468 45.3198 23.7048Z" fill="#EF3BEB"/>
<path d="M31.9602 12.445C31.8527 12.4622 31.8004 12.384 31.7444 12.3009C31.6097 12.1009 31.4735 11.9395 31.2185 11.8298C30.9466 11.7127 30.8305 11.3616 30.6886 11.0844C30.2419 10.2119 29.4942 9.61024 28.7867 8.97291C28.7493 8.93924 28.6889 8.93117 28.6165 8.90776C28.456 8.84023 28.3962 8.71191 28.3327 8.58664C27.5626 7.06764 26.7486 5.57181 25.9408 4.07281C25.5626 3.37089 25.1467 2.68947 24.7374 2.00483C24.6293 1.82397 24.4824 1.64386 24.6238 1.39355C25.3288 1.69118 26.0138 2.00492 26.7002 2.3154C27.3674 2.61719 28.0361 2.91565 28.7151 3.23682C28.829 3.85633 29.1154 4.39167 29.3081 4.95908C29.7198 6.17135 30.2649 7.35215 30.5032 8.60552C30.7279 9.78715 31.3339 10.7897 31.7373 11.8838C31.8042 12.0653 31.8831 12.2423 31.9602 12.445Z" fill="#FB43E4"/>
<path d="M21.5003 19.3888C21.8024 20.0911 22.0797 20.782 22.3742 21.4655C22.463 21.6714 22.457 21.7467 22.2039 21.7402C21.6325 21.7256 21.0605 21.7345 20.4588 21.7293C19.9726 21.4589 19.6138 21.0783 19.3072 20.6653C18.4734 19.5424 17.3871 18.6903 16.3308 17.8032C15.9179 17.4564 15.5126 17.1006 15.1004 16.753C15.0262 16.6903 14.949 16.6297 14.9174 16.5068C15.2228 15.7139 15.5328 14.9434 15.8638 14.1622C16.0467 14.0433 16.1503 14.165 16.2497 14.2554C17.2232 15.1418 18.2525 15.9632 19.2435 16.8284C19.7708 17.2887 20.1652 17.8829 20.6358 18.4022C20.9245 18.7208 21.1956 19.0543 21.5003 19.3888Z" fill="#FC30A0"/>
<path d="M24.5367 33.4051C24.279 33.0097 23.8762 32.8099 23.4952 32.611C21.5867 31.6145 19.8129 30.3915 17.9417 29.3342C17.0152 28.8108 16.0786 28.3001 15.0991 27.8763C14.9338 27.8047 14.7619 27.7319 14.6648 27.5362C16.1094 27.5116 17.5583 27.5085 19.0373 27.5102C20.2045 28.1557 21.3295 28.817 22.3801 29.5942C23.2747 30.256 24.2817 30.746 25.1567 31.4376C25.4442 31.6649 25.7371 31.8865 26.028 32.11C26.1218 32.182 26.2173 32.2579 26.2088 32.4152C25.6783 32.8021 25.1009 33.0708 24.5367 33.4051Z" fill="#F41C68"/>
<path d="M5.88965 16.3356C5.38016 17.4954 4.85969 18.6336 4.31889 19.7833C4.11018 19.9271 3.94244 19.8142 3.78514 19.7349C3.18838 19.4343 2.56782 19.1838 1.97785 18.8695C1.70137 18.7222 1.41109 18.6074 1.11844 18.4973C0.98742 18.448 0.857795 18.3916 0.753615 18.2544C0.702845 17.3815 0.624624 16.5297 0.585669 15.6751C0.555603 15.0154 0.4808 14.3568 0.473145 13.6652C0.652485 13.4909 0.808874 13.6072 0.955131 13.6832C1.68203 14.0614 2.41534 14.4276 3.13902 14.8111C3.83475 15.1798 4.54332 15.5222 5.24027 15.8876C5.46684 16.0064 5.71473 16.0989 5.88965 16.3356Z" fill="#FA2273"/>
<path d="M60.363 26.9448C60.4863 26.8746 60.6125 26.8755 60.7374 26.9216C61.1258 27.0652 61.542 27.0313 61.9409 27.1099C62.0326 27.1279 62.1588 27.1397 62.2247 27.0924C62.6381 26.7958 63.1298 26.9883 63.5691 26.8618C63.6765 26.8308 63.8117 26.8415 63.9193 26.8775C64.1463 26.9533 64.2931 26.8904 64.3919 26.6799C64.4662 26.5216 64.5813 26.4648 64.76 26.5151C64.8605 26.5434 64.9733 26.5276 65.1074 26.5317C65.483 27.5044 65.8322 28.477 66.1797 29.4503C66.278 29.7257 66.3601 30.0073 66.4704 30.2777C66.5372 30.4414 66.5027 30.487 66.3332 30.4867C64.8014 30.4839 63.2697 30.4844 61.738 30.4862C61.5953 30.4864 61.5529 30.4233 61.507 30.2863C61.1361 29.1774 60.7482 28.0741 60.363 26.9448Z" fill="#DB3DEE"/>
<path d="M24.6329 1.35814C24.6338 1.8513 24.9829 2.16185 25.1948 2.52155C25.8552 3.64256 26.4678 4.78856 27.0769 5.937C27.5905 6.90541 28.1351 7.85786 28.5903 8.88145C28.418 9.00131 28.48 9.12864 28.5443 9.26099C28.6682 9.5161 28.8519 9.75166 28.7377 10.0729C28.6988 10.1822 28.8061 10.2921 28.8551 10.3983C28.9834 10.6767 29.1429 10.9316 29.0751 11.2774C29.0331 11.4919 29.229 11.6909 29.3032 11.9272C29.1151 11.9014 29.0843 11.719 29.0321 11.5777C28.9214 11.278 28.7426 11.0248 28.5531 10.7767C28.3168 10.4675 28.0912 10.1529 27.9364 9.793C27.7945 9.46315 27.5991 9.16671 27.3593 8.90093C26.884 8.37413 26.6907 7.67047 26.243 7.12756C25.9254 6.74243 25.6758 6.31836 25.452 5.87266C25.1929 5.35658 24.7453 4.98087 24.3824 4.54281C24.1498 4.26197 23.8673 4.02164 23.6644 3.71342C23.612 3.63379 23.5442 3.59277 23.4259 3.59333C22.9112 2.73179 22.5582 1.80421 22.116 0.919396C21.9766 0.640307 21.8555 0.352047 21.6968 0.00390625C22.7056 0.463624 23.664 0.900399 24.6329 1.35814Z" fill="#FB42DD"/>
<path d="M5.91084 16.3361C5.04877 15.9239 4.1992 15.4856 3.34425 15.0581C2.40313 14.5876 1.49281 14.0558 0.501625 13.6367C0.40959 13.4873 0.406823 13.3306 0.399566 13.17C0.363524 12.3723 0.317025 11.575 0.279053 10.748C0.935064 10.9598 1.50277 11.3615 2.11248 11.682C3.35339 12.3342 4.57454 13.0246 5.84063 13.6281C6.19324 13.7962 6.50067 14.0348 6.86768 14.2174C6.56734 14.9192 6.24415 15.617 5.91084 16.3361Z" fill="#FA2781"/>
<path d="M115.961 30.3124C116.008 30.2606 116.071 30.2399 116.09 30.1989C116.365 29.6002 116.807 29.1028 117.085 28.5018C117.509 27.5854 118.011 26.7047 118.42 25.7825C118.63 25.3105 119.048 24.9926 119.228 24.5062C119.302 24.3048 119.463 24.4059 119.531 24.5563C119.663 24.8495 119.765 24.7436 119.895 24.5529C119.987 24.4175 120.027 24.2213 120.263 24.2C120.29 26.2292 120.29 28.2595 120.301 30.2898C120.302 30.5226 120.168 30.4855 120.031 30.4854C118.714 30.4849 117.396 30.4845 116.048 30.4793C116.008 30.4673 115.997 30.4601 115.976 30.4373C115.962 30.3925 115.959 30.3633 115.961 30.3124Z" fill="#A03AFE"/>
<path d="M6.82959 3.13732C8.04918 2.53876 9.2717 1.96119 10.4969 1.38934C11.4653 0.93734 12.4371 0.492381 13.5033 0C12.5649 2.03862 11.6604 4.00373 10.7351 5.97987C10.5905 6.08504 10.4844 6.01248 10.3918 5.94245C9.23184 5.06498 8.07229 4.18688 6.92648 3.29087C6.88371 3.25742 6.85329 3.21222 6.82959 3.13732Z" fill="#FD37B5"/>
<path d="M133.831 27.4286C133.764 28.0129 133.357 28.3933 133.058 28.8279C132.681 29.3771 132.201 29.8423 131.722 30.304C131.627 30.3952 131.552 30.4972 131.512 30.6473C130.134 30.3891 128.966 29.7495 128.049 28.676C128.03 28.6535 128.022 28.6212 128.008 28.5709C128.091 28.4352 128.223 28.4076 128.346 28.3771C128.908 28.2376 129.141 27.7767 129.358 27.3202C129.569 26.8745 129.844 26.5441 130.363 26.4679C130.774 26.4075 131.081 26.1437 131.411 25.8884C131.559 25.8876 131.62 25.9815 131.675 26.0715C132.081 26.7366 132.707 27.0731 133.436 27.2596C133.569 27.2936 133.712 27.3049 133.831 27.4286Z" fill="#973CFF"/>
<path d="M14.8916 16.4958C15.5118 16.8882 16.0168 17.406 16.5772 17.8568C17.0874 18.2672 17.5861 18.6921 18.0857 19.1155C18.4903 19.4583 18.7917 19.8957 19.1393 20.2905C19.5007 20.7008 19.8281 21.1415 20.2653 21.4806C20.3302 21.5309 20.3692 21.6144 20.4244 21.7038C19.5629 21.7281 18.6971 21.7312 17.8013 21.7299C16.7631 21.1613 15.9164 20.3781 15.0051 19.6829C14.6569 19.4173 14.2941 19.1686 13.9688 18.8405C14.1805 18.1278 14.4989 17.4742 14.7653 16.7997C14.8033 16.7033 14.8356 16.6047 14.8916 16.4958Z" fill="#FB2C92"/>
<path d="M21.5158 19.3798C21.3709 19.4142 21.2807 19.3237 21.1946 19.2231C20.5672 18.4903 19.961 17.7377 19.303 17.0335C18.9323 16.6369 18.4798 16.3156 18.057 15.969C17.3934 15.425 16.7366 14.8735 16.1143 14.282C16.0615 14.2318 15.9916 14.1995 15.9071 14.1551C16.054 13.5467 16.3514 12.9925 16.5709 12.4076C16.6915 12.086 16.8212 11.7679 16.9684 11.4368C17.1917 11.3996 17.301 11.547 17.4202 11.6645C17.9307 12.1676 18.4458 12.6666 18.927 13.2295C19.3031 13.9049 19.5394 14.6189 19.8348 15.307C20.333 16.4678 20.7921 17.6455 21.27 18.8151C21.3448 18.9982 21.4318 19.1763 21.5158 19.3798Z" fill="#FC34AC"/>
<path d="M26.2219 32.4324C25.7506 31.9818 25.2083 31.6476 24.706 31.2623C23.9261 30.6642 23.0298 30.2453 22.2472 29.6495C21.3455 28.9631 20.3579 28.4076 19.3894 27.8234C19.2737 27.7536 19.1307 27.7042 19.0718 27.5361C20.1706 27.5117 21.2738 27.5087 22.407 27.5104C23.2289 28.02 23.9563 28.6096 24.6665 29.2207C25.1315 29.6208 25.6428 29.9639 26.1038 30.4041C26.3437 30.9514 26.5637 31.484 26.7956 32.0115C26.8347 32.1006 26.7947 32.1283 26.7413 32.1586C26.5776 32.2515 26.4109 32.3391 26.2219 32.4324Z" fill="#FA2273"/>
<path d="M43.9246 27.7078C45.3485 28.3234 46.8475 28.6388 48.3408 29.0581C48.2333 29.4924 48.0993 29.9219 47.9688 30.3524C47.9332 30.4697 47.8487 30.4852 47.7446 30.4851C46.2109 30.4838 44.6772 30.484 43.1436 30.484C42.8739 30.484 42.9862 30.3345 43.0319 30.2059C43.3187 29.3983 43.604 28.5901 43.8893 27.7819C43.8964 27.7618 43.8987 27.7399 43.9246 27.7078Z" fill="#F93BDA"/>
<path d="M6.80523 3.12366C7.62267 3.64306 8.35615 4.2577 9.12376 4.82654C9.64062 5.20956 10.1228 5.63894 10.6916 5.98695C10.4925 6.50133 10.2756 7.01401 9.99349 7.52205C9.49376 7.36827 9.14126 6.98819 8.74803 6.67963C8.07462 6.15122 7.3256 5.75037 6.60745 5.29701C6.01547 4.9233 5.47797 4.4771 4.94629 3.99147C5.46272 3.71965 5.98874 3.46524 6.51784 3.21744C6.60102 3.17848 6.68072 3.11204 6.80523 3.12366Z" fill="#FC34AC"/>
<path d="M0.7323 18.2642C1.11247 18.3358 1.47016 18.4845 1.81717 18.6547C2.62051 19.0488 3.41853 19.4536 4.27437 19.7907C4.00306 20.4439 3.70789 21.0932 3.41197 21.7422C3.32085 21.942 3.22771 22.1409 3.12475 22.3618C3.01838 22.4599 2.90952 22.4548 2.80883 22.4106C2.20005 22.1436 1.55927 21.9524 0.951327 21.6208C0.906078 21.0082 0.889124 20.4103 0.853212 19.8135C0.822662 19.3058 0.770268 18.7994 0.7323 18.2642Z" fill="#F41C68"/>
<path d="M13.9478 18.8411C14.3828 18.9516 14.671 19.2877 15.011 19.5409C15.8687 20.1797 16.6593 20.9076 17.5721 21.4739C17.6557 21.5258 17.7326 21.5822 17.767 21.7036C16.1668 21.7285 14.5623 21.7312 12.9578 21.7366C12.8264 21.737 12.7371 21.7151 12.8035 21.5571C13.1806 20.6586 13.5591 19.7607 13.9478 18.8411Z" fill="#FA2781"/>
<path d="M26.1238 30.3967C25.8026 30.3707 25.606 30.1224 25.3746 29.944C24.468 29.2449 23.636 28.4511 22.6777 27.8167C22.5788 27.7512 22.4865 27.677 22.4413 27.5368C23.2112 27.5118 23.9854 27.5144 24.7592 27.4994C24.9256 27.4961 24.9764 27.575 25.0281 27.7016C25.3924 28.5929 25.7608 29.4825 26.1238 30.3967Z" fill="#FA2781"/>
<path d="M0.93689 21.6326C1.30326 21.5905 1.60365 21.806 1.93337 21.9234C2.31666 22.0598 2.69024 22.2236 3.09102 22.3795C2.86169 22.9098 2.60938 23.4361 2.34681 23.9834C2.25034 24.0738 2.15266 24.0673 2.06102 24.0296C1.73357 23.895 1.39002 23.7946 1.07865 23.5684C1.02136 22.9203 0.981935 22.2898 0.93689 21.6326Z" fill="#F41959"/>
<path d="M18.9415 13.2192C18.77 13.2628 18.6741 13.1496 18.575 13.0315C18.0992 12.4648 17.5643 11.9561 17.0038 11.4425C17.1846 10.9327 17.3792 10.4398 17.6043 9.86963C18.0691 11.0284 18.5036 12.1113 18.9415 13.2192Z" fill="#FD37B5"/>
<path d="M1.05737 23.5781C1.51066 23.5893 1.87376 23.8675 2.31381 24.0002C2.00055 24.7509 1.66454 25.4975 1.32852 26.2442C1.30998 26.242 1.29143 26.2399 1.27289 26.2377C1.24193 25.9972 1.17849 25.7555 1.18654 25.5163C1.20534 24.9574 1.07186 24.4073 1.11105 23.8483C1.11661 23.7691 1.07418 23.6865 1.05737 23.5781Z" fill="#F5174E"/>
<path d="M115.963 30.4382C115.98 30.4297 115.993 30.4403 116.011 30.4639C115.999 30.4679 115.98 30.4613 115.963 30.4382Z" fill="#A83EFD"/>
</svg>
