<svg width="38" height="40" viewBox="0 0 38 40" fill="none" xmlns="http://www.w3.org/2000/svg">
<path d="M34.3761 5.10059C34.5837 5.19189 34.7929 5.27982 34.9987 5.37515C35.5584 5.63446 36.1165 5.89731 36.6757 6.15796C37.0245 6.32056 37.3734 6.48308 37.7237 6.64237C37.796 6.67524 37.8014 6.70601 37.7922 6.79009C37.7629 7.05539 37.7626 7.32389 37.7392 7.6038C37.7012 7.62184 37.6674 7.61862 37.6501 7.63399C37.4733 7.79172 37.2937 7.94698 37.1257 8.11388C36.9509 8.2876 36.8 8.49111 36.5157 8.48473C36.4797 8.48392 36.4365 8.50756 36.4076 8.53258C36.2626 8.6583 36.1123 8.7798 35.9802 8.91837C35.6433 9.27186 35.3107 9.62969 34.9859 9.99426C34.8748 10.1189 34.762 10.2048 34.5921 10.2447C34.4544 10.277 34.305 10.3541 34.2109 10.4572C34.0151 10.6716 33.8501 10.9146 33.6776 11.1496C33.6113 11.2399 33.5509 11.3069 33.4477 11.1923C33.3954 11.2629 33.3541 11.3274 33.3041 11.3845C33.1115 11.6045 32.9105 11.8175 32.7238 12.0424C32.6193 12.1683 32.6251 12.177 32.4959 12.0553C32.4455 12.1634 32.3972 12.267 32.343 12.3658C32.323 12.3461 32.3089 12.3314 32.293 12.3068C32.2199 12.1224 32.1547 11.9448 32.0746 11.7744C32.0328 11.6856 32.0164 11.6053 32.0621 11.5184C32.1316 11.3863 32.1264 11.2482 32.0489 11.1318C31.9244 10.9448 31.9779 10.7856 32.0823 10.6195C32.1064 10.5812 32.1264 10.524 32.1162 10.4836C32.0792 10.3372 32.0565 10.1758 31.9764 10.0544C31.8694 9.89245 31.9194 9.77118 32.0006 9.63659C32.0284 9.5904 32.0537 9.54244 32.0848 9.4985C32.1797 9.3641 32.1812 9.23265 32.0786 9.0912C32.0909 9.02879 32.0917 8.97072 32.1171 8.92678C32.2848 8.63599 32.462 8.35062 32.6252 8.05741C32.6568 8.00067 32.6619 7.91 32.6411 7.84767C32.6078 7.74767 32.6239 7.67995 32.6942 7.60546C32.7798 7.51472 32.8695 7.42137 32.9288 7.31343C33.1751 6.86521 33.4108 6.41113 33.6501 5.95909C33.7951 5.68532 33.9376 5.41096 34.2186 5.24358C34.2783 5.208 34.324 5.14887 34.3761 5.10059Z" fill="#AF26F7"/>
<path d="M0.558055 15.5314C0.538513 15.2026 0.519409 14.8737 0.499296 14.5449C0.481921 14.2608 0.463416 13.9768 0.445378 13.6928C0.418321 13.2668 0.391818 12.8407 0.363507 12.4147C0.359445 12.3536 0.346595 12.2931 0.349731 12.2227C0.985597 12.3831 1.61033 12.5503 2.233 12.725C2.41237 12.7753 2.5842 12.8519 2.76246 12.9068C2.89498 12.9477 3.03406 12.9671 3.16691 13.0071C3.26311 13.036 3.35977 13.0656 3.39162 13.1918C3.40251 13.235 3.48416 13.2713 3.54038 13.2898C3.67245 13.3333 3.81229 13.3544 3.94239 13.4024C4.13781 13.4745 4.348 13.498 4.52586 13.6325C4.66645 13.7388 4.83943 13.8071 5.00556 13.8734C5.1593 13.9348 5.32213 13.9745 5.48257 14.0177C5.78061 14.0981 6.0695 14.2087 6.38723 14.2168C6.55353 14.221 6.73212 14.2656 6.88036 14.3409C7.13923 14.4723 7.40817 14.5042 7.68816 14.5061C7.61807 14.67 7.55219 14.8358 7.47707 14.9974C7.2639 15.4558 7.04695 15.9125 6.81185 16.3724C6.6289 16.3634 6.46557 16.3519 6.30228 16.3399C6.25776 16.3367 6.21272 16.3351 6.16899 16.327C5.7992 16.2581 5.43056 16.1826 5.0596 16.1209C4.91148 16.0962 4.75681 16.1123 4.60789 16.0908C4.08927 16.0156 3.57105 15.9369 3.05421 15.8504C2.55536 15.7669 2.05932 15.6627 1.54843 15.7194C1.51389 15.7233 1.47721 15.7129 1.44213 15.706C1.14736 15.6482 0.852729 15.5897 0.558055 15.5314Z" fill="#F42AA4"/>
<path d="M11.2195 6.94115C10.7204 8.01286 10.2213 9.08458 9.70317 10.159C9.60566 10.1302 9.52398 10.105 9.44958 10.0659C9.31669 9.99607 9.1873 9.91937 9.05837 9.84233C9.01446 9.81609 8.95219 9.78727 8.94047 9.74727C8.91445 9.65855 8.88899 9.55539 8.91061 9.4701C8.94967 9.31601 8.87477 9.2592 8.75721 9.20421C8.56432 9.11399 8.50372 8.99314 8.54232 8.78782C8.55796 8.70469 8.54225 8.65222 8.45564 8.62097C8.18664 8.5239 7.91855 8.42409 7.6522 8.31998C7.52271 8.26937 7.39941 8.20315 7.27068 8.1504C6.83643 7.97245 6.40073 7.79806 5.96624 7.62069C5.87067 7.58167 5.77397 7.5426 5.68518 7.49086C5.63434 7.46124 5.57118 7.41124 5.56169 7.36127C5.54445 7.27045 5.4916 7.23493 5.42081 7.19916C5.07361 7.0237 4.71395 6.87993 4.37641 6.67666C3.72325 6.28333 3.03841 5.9426 2.3667 5.58007C2.91046 5.32964 3.45432 5.07941 3.99794 4.82866C4.14871 4.75911 4.29878 4.68802 4.46432 4.62427C4.84322 4.87098 5.23384 5.05694 5.64071 5.21107C5.98751 5.34245 6.33179 5.48059 6.68014 5.60764C6.74116 5.62989 6.81677 5.61271 6.88564 5.61268C6.96021 5.61264 7.0426 5.59021 7.10797 5.61438C7.35633 5.70623 7.60558 5.80002 7.84275 5.91691C8.29723 6.1409 8.74373 6.3811 9.19337 6.61492C9.22518 6.63146 9.25467 6.65252 9.28674 6.66846C9.35189 6.70084 9.41511 6.74312 9.48433 6.76017C9.73496 6.8219 9.98767 6.87523 10.2399 6.93051C10.2608 6.9351 10.2928 6.93996 10.3044 6.92882C10.4229 6.8148 10.533 6.88438 10.6511 6.93237C10.7782 6.98402 10.9138 7.05182 11.0456 6.91418C11.1106 6.92326 11.165 6.9322 11.2195 6.94115Z" fill="#F431C8"/>
<path d="M0.206744 10.1017C0.187189 9.72799 0.168703 9.35421 0.14774 8.98057C0.131302 8.68758 0.111801 8.39476 0.102661 8.0896C0.165919 8.09783 0.222154 8.11425 0.274096 8.13951C0.521008 8.25957 0.75802 8.40599 1.01444 8.49944C2.0364 8.87183 3.03008 9.32142 4.08479 9.60612C4.39461 9.68976 4.68712 9.84147 4.98215 9.97403C5.09409 10.0243 5.17412 9.99955 5.269 9.94181C5.31899 9.91139 5.39556 9.8952 5.45096 9.90911C5.5723 9.93957 5.68513 10.004 5.80648 10.0344C5.91597 10.0618 6.03218 10.0623 6.15454 10.0788C6.58179 10.2292 6.99918 10.3775 7.41846 10.5203C7.55804 10.5679 7.70615 10.5914 7.84396 10.643C8.31327 10.8186 8.77973 11.0019 9.24727 11.1823C8.98533 11.7471 8.72339 12.3118 8.44283 12.879C8.24025 12.8238 8.05653 12.7654 7.87209 12.7093C7.84284 12.7004 7.80985 12.7047 7.7794 12.6988C7.65525 12.6745 7.52329 12.6679 7.40907 12.6197C7.122 12.4984 6.85018 12.3387 6.55894 12.2301C6.20251 12.0972 5.83097 12.0054 5.46879 11.8872C5.04205 11.7478 4.62049 11.5924 4.19262 11.4568C3.86357 11.3526 3.52911 11.2649 3.19545 11.1758C2.90633 11.0987 2.61052 11.0438 2.32608 10.9529C2.1226 10.8878 1.93572 10.7726 1.73666 10.6915C1.37497 10.5441 1.01004 10.4046 0.645794 10.2636C0.500358 10.2073 0.353147 10.1555 0.206744 10.1017Z" fill="#F52EB4"/>
<path d="M27.2479 8.35946C27.1117 8.0778 26.9734 7.79711 26.8399 7.51417C26.7284 7.27807 26.6226 7.03934 26.5177 6.78295C26.6493 6.51846 26.7764 6.27227 26.9073 6.02808C26.9187 6.00698 26.956 6.00096 26.979 5.98474C27.0246 5.95259 27.093 5.92729 27.1093 5.88332C27.2421 5.52608 27.4483 5.21293 27.6683 4.90606C27.8065 4.71318 27.9655 4.52694 28.0611 4.31348C28.2294 3.93757 28.3545 3.54244 28.5011 3.15666C28.5836 2.93961 28.673 2.72515 28.7592 2.50952C28.9041 2.56978 29.0512 2.62539 29.1935 2.69118C29.6231 2.88972 30.0502 3.09374 30.4795 3.29275C30.9041 3.48953 31.3303 3.6828 31.758 3.89587C31.7465 3.94727 31.7374 3.98348 31.7181 4.01303C31.6349 4.14069 31.5387 4.26109 31.4671 4.39481C31.4232 4.47691 31.3756 4.59105 31.4002 4.66825C31.4423 4.80002 31.4052 4.89027 31.3428 4.99418C31.1706 5.2811 31.0009 5.56961 30.8369 5.86132C30.6283 6.23253 30.4399 6.61593 30.2147 6.97655C30.1289 7.11394 30.0129 7.27428 29.792 7.24551C29.7531 7.24045 29.7007 7.30307 29.6619 7.34182C29.5912 7.41243 29.526 7.48857 29.449 7.56073C29.3783 7.51787 29.3172 7.47669 29.2465 7.42912C29.1572 7.53219 29.1753 7.83533 28.903 7.61421C28.8668 7.67771 28.8445 7.73873 28.8036 7.78251C28.758 7.83142 28.672 7.91109 28.6445 7.89707C28.4915 7.81904 28.4642 7.93499 28.3998 8.01907C28.3704 8.05754 28.2728 8.09759 28.2531 8.08104C28.1255 7.97356 28.0868 8.06123 28.0378 8.15818C27.9929 8.24707 27.9296 8.29865 27.8419 8.20069C27.7632 8.11279 27.709 8.11831 27.6508 8.22661C27.5881 8.34336 27.5299 8.34498 27.4315 8.25409C27.416 8.2398 27.3959 8.23051 27.3728 8.21559C27.3282 8.26694 27.288 8.3132 27.2479 8.35946Z" fill="#C229F1"/>
<path d="M9.25169 11.1732C8.77981 11.0019 8.31335 10.8186 7.84405 10.643C7.70623 10.5914 7.55812 10.5679 7.41854 10.5203C6.99927 10.3775 6.58187 10.2292 6.15652 10.0694C6.18127 9.9866 6.20911 9.91514 6.24622 9.84887C6.29694 9.75829 6.26882 9.70767 6.17701 9.67479C6.03752 9.62485 5.89966 9.57039 5.76049 9.51953C5.69806 9.49671 5.66471 9.45751 5.70814 9.39827C5.80471 9.26657 5.71244 9.20699 5.6152 9.16419C5.47162 9.101 5.31996 9.05644 5.17437 8.99744C5.0876 8.96228 4.97431 8.93593 4.92863 8.86812C4.84152 8.73876 4.71216 8.70046 4.58865 8.6423C4.26364 8.48927 3.91891 8.3681 3.61702 8.17852C3.2401 7.94183 2.8388 7.76742 2.42883 7.61116C2.06493 7.47245 1.69011 7.3677 1.34353 7.17975C1.08058 7.03715 0.792619 6.94143 0.521768 6.8123C0.403186 6.75577 0.299524 6.66793 0.189087 6.59431C0.464101 6.46177 0.737901 6.32662 1.01445 6.19735C1.32736 6.05109 1.64269 5.90999 1.95707 5.76688C2.08809 5.70723 2.21939 5.64817 2.3586 5.58447C3.03834 5.94263 3.72318 6.28336 4.37634 6.67669C4.71389 6.87996 5.07355 7.02374 5.42074 7.19919C5.49154 7.23497 5.54438 7.27048 5.56163 7.3613C5.57112 7.41127 5.63428 7.46128 5.68511 7.4909C5.7739 7.54263 5.8706 7.58171 5.96618 7.62072C6.40067 7.79809 6.83637 7.97249 7.27062 8.15043C7.39935 8.20318 7.52265 8.26941 7.65213 8.32001C7.91848 8.42412 8.18657 8.52393 8.45557 8.621C8.54219 8.65226 8.55789 8.70472 8.54226 8.78786C8.50366 8.99317 8.56426 9.11402 8.75715 9.20425C8.87471 9.25924 8.94961 9.31604 8.91055 9.47014C8.88893 9.55542 8.91439 9.65858 8.9404 9.7473C8.95213 9.7873 9.0144 9.81613 9.05831 9.84237C9.18724 9.9194 9.31663 9.9961 9.44951 10.0659C9.52391 10.105 9.6056 10.1303 9.69567 10.1642C9.59146 10.4244 9.47575 10.6821 9.3596 10.9397C9.32573 11.0148 9.29058 11.0893 9.25169 11.1732Z" fill="#F631C1"/>
<path d="M0.204834 10.1133C0.353205 10.1555 0.500416 10.2072 0.645852 10.2636C1.0101 10.4046 1.37503 10.5441 1.73672 10.6915C1.93578 10.7726 2.12266 10.8877 2.32614 10.9528C2.61058 11.0438 2.90639 11.0986 3.19551 11.1758C3.52917 11.2648 3.86363 11.3525 4.19267 11.4568C4.62055 11.5924 5.04211 11.7478 5.46885 11.8871C5.83103 12.0054 6.20256 12.0972 6.559 12.2301C6.85024 12.3387 7.12206 12.4983 7.40913 12.6196C7.52334 12.6679 7.65531 12.6745 7.77945 12.6987C7.80991 12.7047 7.8429 12.7004 7.87215 12.7093C8.05659 12.7653 8.24031 12.8238 8.43432 12.8833C8.35124 13.0974 8.26125 13.311 8.16426 13.5213C8.01374 13.8477 7.85845 14.1719 7.69669 14.5015C7.4082 14.5041 7.13927 14.4721 6.8804 14.3407C6.73216 14.2654 6.55357 14.2208 6.38727 14.2166C6.06953 14.2085 5.78064 14.098 5.48261 14.0176C5.32217 13.9743 5.15934 13.9346 5.00559 13.8732C4.83947 13.8069 4.66649 13.7387 4.5259 13.6324C4.34804 13.4979 4.13785 13.4744 3.94243 13.4023C3.81232 13.3543 3.67249 13.3332 3.54041 13.2897C3.48419 13.2712 3.40255 13.2348 3.39165 13.1917C3.35981 13.0655 3.26315 13.0358 3.16695 13.0069C3.0341 12.9669 2.89502 12.9475 2.7625 12.9067C2.58424 12.8518 2.4124 12.7751 2.23304 12.7248C1.61037 12.5502 0.985635 12.3829 0.35178 12.2108C0.322362 11.8446 0.304014 11.4804 0.282963 11.1163C0.266827 10.8373 0.248102 10.5584 0.228515 10.2795C0.224869 10.2276 0.211661 10.1764 0.204834 10.1133Z" fill="#F62EAE"/>
<path d="M28.7547 2.50092C28.6729 2.72523 28.5836 2.93969 28.5011 3.15675C28.3545 3.54252 28.2293 3.93765 28.061 4.31356C27.9655 4.52702 27.8065 4.71326 27.6682 4.90615C27.4482 5.21301 27.242 5.52616 27.1093 5.8834C27.0929 5.92738 27.0245 5.95267 26.9789 5.98482C26.9559 6.00104 26.9186 6.00706 26.9073 6.02817C26.7764 6.27235 26.6492 6.51854 26.5169 6.77297C26.3548 6.45568 26.1941 6.13088 26.0396 5.80319C25.8885 5.48255 25.7449 5.15833 25.5956 4.83683C25.2156 4.01892 24.8343 3.20163 24.4534 2.38415C24.2797 2.01126 24.1052 1.63868 23.9318 1.26565C23.7528 0.880785 23.5745 0.495649 23.3968 0.110193C23.3867 0.0882694 23.3853 0.0623516 23.3711 0C25.1829 0.839432 26.9665 1.66583 28.7547 2.50092Z" fill="#C92CF2"/>
<path d="M32.349 12.3706C32.3973 12.267 32.4457 12.1633 32.4961 12.0553C32.6253 12.177 32.6194 12.1683 32.7239 12.0424C32.9106 11.8175 33.1116 11.6044 33.3043 11.3844C33.3542 11.3274 33.3955 11.2628 33.4478 11.1923C33.5511 11.3069 33.6115 11.2398 33.6778 11.1495C33.8503 10.9145 34.0153 10.6715 34.2111 10.4571C34.3051 10.3541 34.4546 10.277 34.5922 10.2447C34.7622 10.2048 34.8749 10.1189 34.986 9.9942C35.3108 9.62964 35.6435 9.2718 35.9804 8.91831C36.1124 8.77974 36.2627 8.65825 36.4078 8.53252C36.4366 8.50751 36.4798 8.48386 36.5158 8.48467C36.8002 8.49105 36.951 8.28754 37.1259 8.11382C37.2938 7.94692 37.4734 7.79167 37.6503 7.63393C37.6675 7.61856 37.7013 7.62179 37.7375 7.61621C37.74 7.64987 37.7276 7.68345 37.7258 7.71757C37.7065 8.09027 37.6907 8.46315 37.6704 8.83579C37.6535 9.14583 37.632 9.45561 37.5921 9.77189C37.4574 9.836 37.3229 9.87202 37.2329 9.95583C37.0271 10.1475 36.8381 10.3582 36.6535 10.5709C36.6029 10.6291 36.5713 10.7207 36.567 10.799C36.5532 11.0505 36.3922 11.2714 36.1437 11.3325C36.0425 11.3575 35.9958 11.4103 35.9968 11.509C35.9988 11.7055 35.9038 11.8559 35.786 12.0044C35.6616 12.1614 35.554 12.3324 35.4452 12.5012C35.3778 12.6056 35.3272 12.7209 35.2592 12.825C35.1911 12.9293 35.1207 13.0244 35.195 13.1581C35.2123 13.1893 35.2035 13.2504 35.1837 13.2844C35.0737 13.4734 34.9584 13.6594 34.8413 13.8442C34.7407 14.0029 34.6184 14.1492 34.5999 14.3488C34.5941 14.4123 34.5707 14.4775 34.5411 14.5345C34.5021 14.6095 34.4491 14.6771 34.3959 14.741C34.3141 14.6344 34.2383 14.5347 34.1547 14.4247C34.1197 14.4753 34.095 14.5117 34.0697 14.5477C34.0049 14.6398 33.9434 14.6346 33.8938 14.533C33.8287 14.3994 33.8159 14.3975 33.7204 14.5155C33.6716 14.5758 33.6261 14.6167 33.564 14.529C33.4603 14.3825 33.4595 14.3834 33.3568 14.5267C33.3503 14.5359 33.3348 14.5387 33.3381 14.537C33.2345 14.4508 33.1379 14.3704 33.0472 14.2949C32.9916 14.3267 32.9539 14.3482 32.9163 14.3583C32.9309 14.2326 32.9805 14.1092 32.9534 14.006C32.8786 13.7205 32.7791 13.4408 32.6757 13.1639C32.5756 12.8961 32.4586 12.6348 32.349 12.3706Z" fill="#A823F6"/>
<path d="M18.1397 39.5962C17.7154 39.3544 17.2909 39.113 16.8669 38.8707C16.3735 38.5888 15.8805 38.306 15.3872 38.0239C14.9855 37.7943 14.5836 37.5651 14.1818 37.3358C13.6807 37.0498 13.1799 36.7632 12.6782 36.4781C12.2032 36.2082 11.7269 35.9406 11.252 35.6706C10.7888 35.4071 10.3266 35.1418 9.85754 34.864C10.0342 34.7506 10.202 34.6269 10.3758 34.5141C10.6248 34.3527 10.9207 34.297 11.2297 34.3414C11.3289 34.4424 11.4409 34.413 11.5527 34.401C11.6265 34.3931 11.7018 34.3995 11.7764 34.3995C11.7842 34.4124 11.792 34.4253 11.7998 34.4382C11.6411 34.5606 11.672 34.7229 11.681 34.8826C11.6925 34.8874 11.7046 34.8968 11.7169 34.8971C11.8023 34.8992 11.8878 34.8999 11.9732 34.9003C12.1765 34.9013 12.2014 34.9376 12.1162 35.117C12.0731 35.2079 12.0923 35.2567 12.1987 35.2509C12.2925 35.2458 12.386 35.2321 12.4798 35.2305C12.5253 35.2298 12.5937 35.2339 12.6107 35.2613C12.6296 35.2916 12.6074 35.353 12.5926 35.3974C12.5781 35.4409 12.5503 35.48 12.5132 35.5494C12.7624 35.5336 12.9801 35.527 13.1955 35.5011C13.2528 35.4942 13.3226 35.4394 13.3528 35.3871C13.4418 35.2332 13.5702 35.1837 13.7373 35.1967C13.8044 35.2019 13.8723 35.1996 13.9397 35.1967C14.0513 35.1921 14.1394 35.1544 14.1746 35.034C14.2026 34.9385 14.2638 34.8976 14.3698 34.9217C14.4788 34.9464 14.5906 34.9652 14.702 34.9714C14.8655 34.9804 15.0368 35.0055 15.1919 34.9691C15.3478 34.9324 15.4867 34.9208 15.6383 34.9697C15.8124 35.026 15.991 35.0682 16.1696 35.1258C16.2553 35.1887 16.3418 35.2387 16.4219 35.2975C16.4602 35.3256 16.5111 35.3692 16.5131 35.4081C16.5194 35.5267 16.4975 35.6466 16.5012 35.7655C16.5029 35.8204 16.5269 35.8839 16.5615 35.9267C16.6485 36.034 16.7431 36.1364 16.8427 36.2323C16.9733 36.3582 16.9752 36.4943 16.9053 36.6493C16.8457 36.7816 16.8821 36.9036 16.97 37.0116C17.0632 37.1262 17.1633 37.2355 17.252 37.3534C17.2812 37.3921 17.3068 37.4564 17.2955 37.4986C17.263 37.6197 17.3151 37.7075 17.3788 37.7966C17.6006 38.107 17.8284 38.4135 17.9062 38.8005C17.9228 38.8831 17.9685 38.9594 17.9918 39.0411C18.0441 39.2253 18.0908 39.4111 18.1397 39.5962Z" fill="#F70744"/>
<path d="M0.847857 20.017C0.839958 19.998 0.826014 19.9794 0.825049 19.9601C0.805736 19.5736 0.790625 19.1869 0.769081 18.8006C0.74512 18.3709 0.717236 17.9414 0.687705 17.5121C0.674391 17.3185 0.652941 17.1255 0.648682 16.9207C0.741843 16.9198 0.82184 16.9285 0.901113 16.9415C1.37788 17.02 1.85328 17.1078 2.33152 17.1757C2.67922 17.2251 3.03023 17.253 3.38044 17.2825C3.6836 17.3079 3.9875 17.3285 4.2915 17.3389C4.46083 17.3447 4.63612 17.2954 4.79988 17.3232C5.28529 17.4054 5.7663 17.5135 6.24903 17.6115C6.18616 17.7598 6.12779 17.9102 6.0596 18.056C5.83812 18.5295 5.6122 19.001 5.38968 19.4741C5.26828 19.7322 5.1503 19.9919 5.0108 20.255C4.85323 20.241 4.71593 20.22 4.57796 20.2053C4.24509 20.1697 3.91246 20.1294 3.5787 20.1054C3.23981 20.081 2.90179 19.9399 2.55922 20.0874C2.54041 20.0956 2.51506 20.0898 2.49287 20.0885C2.22909 20.0735 1.9653 20.0585 1.70159 20.0424C1.62572 20.0378 1.55017 20.0252 1.47433 20.0236C1.26555 20.0193 1.05669 20.0189 0.847857 20.017Z" fill="#F42790"/>
<path d="M29.4585 7.56223C29.526 7.4884 29.5912 7.41226 29.6619 7.34165C29.7007 7.30291 29.7532 7.24029 29.792 7.24535C30.0129 7.27411 30.129 7.11377 30.2148 6.97639C30.4399 6.61577 30.6284 6.23236 30.837 5.86116C31.0009 5.56945 31.1707 5.28093 31.3429 4.99402C31.4052 4.8901 31.4424 4.79986 31.4003 4.66808C31.3756 4.59089 31.4232 4.47675 31.4672 4.39464C31.5387 4.26092 31.6349 4.14053 31.7182 4.01286C31.7374 3.98331 31.7465 3.94711 31.7636 3.90308C32.0372 4.01534 32.3077 4.13796 32.5776 4.26174C33.1743 4.53532 33.7706 4.80947 34.3717 5.09196C34.3241 5.14881 34.2784 5.20795 34.2187 5.24353C33.9378 5.41091 33.7952 5.68527 33.6503 5.95904C33.4109 6.41108 33.1753 6.86516 32.9289 7.31338C32.8696 7.42132 32.7799 7.51466 32.6943 7.60541C32.6241 7.67989 32.608 7.74761 32.6413 7.84762C32.6621 7.90995 32.657 8.00062 32.6254 8.05736C32.4622 8.35056 32.2849 8.63593 32.1172 8.92672C32.0919 8.97067 32.091 9.02874 32.0685 9.09125C31.9232 9.0974 31.9064 9.22487 31.8399 9.29694C31.734 9.41187 31.6873 9.48556 31.592 9.29679C31.5356 9.18525 31.4774 9.18858 31.4034 9.29227C31.3616 9.35085 31.3251 9.41316 31.2828 9.47134C31.2366 9.53489 31.2001 9.54627 31.1383 9.47174C31.0472 9.36183 30.9354 9.26905 30.8203 9.15714C30.7849 9.21932 30.7518 9.27571 30.7205 9.33308C30.6745 9.41735 30.6198 9.41257 30.5615 9.3483C30.5437 9.32874 30.5368 9.29921 30.5186 9.28022C30.4895 9.24979 30.4511 9.1989 30.4241 9.20326C30.3909 9.20864 30.3615 9.25911 30.3375 9.29486C30.3101 9.33563 30.2906 9.38165 30.2683 9.42424C30.1272 9.29928 30.0016 9.1879 29.8766 9.07717C29.8219 9.15625 29.7753 9.22368 29.7245 9.28161C29.7217 9.21557 29.7197 9.1587 29.7253 9.10259C29.7306 9.04967 29.7586 8.99544 29.7513 8.94544C29.708 8.64535 29.5813 8.37226 29.4385 8.11107C29.3775 7.99945 29.3617 7.91142 29.4295 7.81571C29.4887 7.73227 29.4908 7.65149 29.4585 7.56223Z" fill="#B827F3"/>
<path d="M11.2241 34.3332C10.9206 34.297 10.6247 34.3528 10.3757 34.5142C10.2019 34.6269 10.0341 34.7507 9.84876 34.8597C9.60584 34.7325 9.36679 34.5933 9.12368 34.4615C9.04095 34.4167 9.02131 34.3757 9.05991 34.2833C9.33571 33.623 9.60395 32.9595 9.87716 32.298C10.0834 31.7989 10.2933 31.3013 10.5225 30.7984C10.9154 30.794 11.2874 30.7915 11.6593 30.7975C11.7118 30.7984 11.7651 30.8383 11.8151 30.8656C11.8638 30.8922 11.9069 30.9488 11.9556 30.9526C12.2809 30.9781 12.6071 30.9928 12.9329 31.0119C12.9594 31.0135 12.9853 31.023 13.0117 31.0281C13.1687 31.0584 13.3264 31.0858 13.4825 31.1202C13.5302 31.1308 13.5739 31.1603 13.6191 31.1818C13.6878 31.2144 13.7531 31.2615 13.8254 31.2775C13.9556 31.3063 14.09 31.3166 14.2209 31.3443C14.1744 31.4726 14.1296 31.5913 14.0751 31.7354C14.2333 31.7477 14.3578 31.7514 14.48 31.7698C14.5295 31.7773 14.6079 31.8095 14.6152 31.843C14.6499 32.003 14.7606 32.0531 14.9 32.0785C14.9483 32.0873 14.9946 32.1065 15.0428 32.1163C15.1631 32.1409 15.2092 32.2188 15.1878 32.3319C15.1726 32.4125 15.2033 32.4328 15.2753 32.4439C15.4079 32.4643 15.542 32.4852 15.669 32.5261C15.7182 32.5419 15.7498 32.6126 15.7799 32.6602C15.635 32.7892 15.4795 32.7733 15.317 32.7306C15.1195 32.6787 14.9222 32.63 14.7584 32.8186C14.7292 32.8522 14.6715 32.872 14.6246 32.8772C14.4958 32.8912 14.3631 32.88 14.237 32.9047C14.0413 32.9431 13.8309 32.9693 13.6626 33.0642C13.522 33.1434 13.4061 33.1843 13.2503 33.1535C12.9959 33.1031 12.7639 33.1268 12.6428 33.4066C12.6377 33.4185 12.627 33.4283 12.618 33.4384C12.4704 33.604 12.327 33.7737 12.1722 33.9322C12.1303 33.9751 12.0556 33.9972 11.9928 34.006C11.8645 34.024 11.7342 34.0319 11.6045 34.034C11.3988 34.0372 11.2833 34.1475 11.2241 34.3332Z" fill="#F40D4F"/>
<path d="M34.8602 24.7459C34.702 24.4191 34.5409 24.0935 34.3862 23.765C34.231 23.4357 34.0827 23.1032 33.9305 22.7725C33.6995 22.2706 33.4677 21.769 33.2371 21.2493C33.2746 21.102 33.3149 20.9737 33.3473 20.8433C33.3967 20.6439 33.4335 20.4412 33.4893 20.2437C33.5264 20.1125 33.6012 19.9915 33.6341 19.8597C33.6703 19.715 33.678 19.5631 33.6978 19.4143C33.6995 19.401 33.6974 19.3871 33.6997 19.3739C33.7531 19.0811 33.7326 18.7808 33.8673 18.4947C33.9978 18.218 34.067 17.9118 34.1556 17.6163C34.1765 17.5464 34.1772 17.4661 34.1687 17.3927C34.1599 17.3162 34.1707 17.2708 34.255 17.2598C34.3606 17.2459 34.381 17.1839 34.3608 17.0852C34.3469 17.0167 34.3341 16.9316 34.362 16.8738C34.4842 16.6206 34.6214 16.3746 34.7636 16.1264C34.9157 16.1326 35.0576 16.1372 35.1993 16.1443C35.3115 16.1499 35.4325 16.1344 35.5336 16.1717C35.6669 16.2209 35.7485 16.2208 35.8382 16.1077C35.8646 16.0744 35.9001 16.0483 35.9432 16.0077C35.9569 16.0517 35.9602 16.0692 35.9675 16.0848C35.994 16.1408 36.0218 16.1961 36.049 16.2517C36.0983 16.2176 36.1498 16.1863 36.1957 16.1481C36.2189 16.1289 36.2324 16.0976 36.249 16.0709C36.2871 16.0096 36.3244 15.9478 36.3621 15.8862C36.3783 15.8896 36.3945 15.8931 36.4107 15.8965C36.4169 15.9763 36.4191 16.0567 36.4312 16.1357C36.4359 16.1665 36.4573 16.2109 36.4808 16.2182C36.5047 16.2255 36.5522 16.2031 36.5687 16.1794C36.6198 16.106 36.6599 16.0252 36.7063 15.9486C36.7477 15.8801 36.7919 15.8134 36.8349 15.7458C36.8489 15.7501 36.863 15.7543 36.8771 15.7586C36.8895 15.827 36.9019 15.8955 36.9142 15.9746C36.8547 16.114 36.7969 16.2435 36.7354 16.3712C36.6703 16.5064 36.5875 16.6349 36.5381 16.7753C36.4727 16.9615 36.3872 17.1302 36.2377 17.2602C36.137 17.3479 36.1065 17.457 36.117 17.5842C36.1202 17.6237 36.1338 17.6719 36.1171 17.7018C36.0102 17.8929 35.8889 18.0763 35.7879 18.2703C35.7436 18.3554 35.7317 18.4588 35.7133 18.5554C35.7027 18.6109 35.7313 18.6869 35.7031 18.7237C35.55 18.9236 35.5125 19.1671 35.4274 19.3928C35.3436 19.615 35.2259 19.8262 35.2783 20.0791C35.2873 20.1224 35.2608 20.1756 35.2432 20.2214C35.1789 20.3885 35.1251 20.5616 35.0412 20.7185C34.9646 20.8617 34.9903 20.9876 35.0259 21.1311C35.0731 21.3211 35.1072 21.5168 35.1222 21.7119C35.1382 21.9207 35.1254 22.1317 35.1251 22.3417C35.1249 22.4675 35.1569 22.6046 35.1173 22.7164C35.0433 22.9253 35.0404 23.1279 35.0774 23.3503C35.056 23.5123 35.0349 23.6624 35.0132 23.8123C34.9808 24.0369 34.9494 24.2617 34.9144 24.4859C34.9008 24.5732 34.8786 24.6593 34.8602 24.7459Z" fill="#9B1DF2"/>
<path d="M23.4882 37.4077C23.1529 37.5984 22.8176 37.7891 22.4718 37.9702C22.3784 37.5884 22.3119 37.2116 22.2092 36.8449C22.0132 36.1453 21.7973 35.4513 21.5876 34.7556C21.5528 34.6401 21.5154 34.524 21.4646 34.415C21.4067 34.2903 21.3283 34.1753 21.2664 34.0522C21.1893 33.8991 21.1482 33.7369 20.9953 33.6172C20.7826 33.4506 20.603 33.2419 20.4102 33.0502C20.1692 32.8107 19.9118 32.5963 19.6366 32.3919C19.2118 32.0763 18.7345 31.8581 18.2982 31.5688C18.2775 31.555 18.2468 31.5563 18.2189 31.5406C18.2056 31.4046 18.1338 31.3315 18.0188 31.2851C17.9537 31.2589 17.8688 31.2257 17.8422 31.1715C17.7765 31.0375 17.6604 30.9794 17.5434 30.9131C17.4978 30.8873 17.4257 30.849 17.4244 30.8143C17.4181 30.6421 17.2669 30.6263 17.1699 30.5509C17.1198 30.5119 17.0478 30.4654 17.0407 30.4146C17.027 30.3159 16.9697 30.2921 16.8946 30.2653C16.7896 30.2279 16.6546 30.21 16.5913 30.1344C16.483 30.0053 16.3418 29.9681 16.2037 29.9086C16.1562 29.8881 16.0839 29.8623 16.0751 29.8262C16.0446 29.701 15.9428 29.6962 15.8533 29.6595C15.7658 29.6237 15.6844 29.5731 15.6003 29.5289C16.2224 29.5277 16.8444 29.5264 17.4817 29.5355C17.6431 29.6486 17.781 29.7662 17.9368 29.851C18.2762 30.0356 18.5619 30.2814 18.8347 30.5514C19.0358 30.7504 19.2764 30.8956 19.5445 31.0037C19.7365 31.081 19.9168 31.1996 20.0824 31.326C20.2335 31.4413 20.3009 31.4888 20.4654 31.3922C20.6282 31.2966 20.7238 31.3654 20.828 31.4698C21.0789 31.7214 21.3383 31.9651 21.5792 32.2258C21.7919 32.456 21.9849 32.7044 22.1846 32.9463C22.2097 32.9766 22.2324 33.0147 22.2402 33.0524C22.2816 33.2541 22.3222 33.4562 22.3549 33.6594C22.3845 33.8435 22.3894 34.0327 22.4316 34.2134C22.4692 34.374 22.5373 34.5285 22.6018 34.6815C22.7325 34.9914 22.8709 35.2981 23.0041 35.6069C23.0605 35.7378 23.1283 35.8668 23.1623 36.0038C23.2778 36.4701 23.3806 36.9395 23.4882 37.4077Z" fill="#EC065F"/>
<path d="M36.9143 15.964C36.9018 15.8955 36.8894 15.8271 36.877 15.7586C36.8629 15.7544 36.8489 15.7501 36.8348 15.7459C36.7918 15.8134 36.7477 15.8802 36.7062 15.9486C36.6598 16.0253 36.6197 16.1061 36.5686 16.1794C36.5521 16.2032 36.5046 16.2256 36.4807 16.2182C36.4573 16.211 36.4358 16.1665 36.4311 16.1357C36.419 16.0568 36.4168 15.9763 36.4106 15.8965C36.3944 15.8931 36.3782 15.8897 36.362 15.8863C36.3244 15.9479 36.2871 16.0097 36.2489 16.071C36.2324 16.0976 36.2188 16.1289 36.1956 16.1482C36.1498 16.1864 36.0982 16.2177 36.049 16.2518C36.0217 16.1962 35.9939 16.1408 35.9675 16.0848C35.9601 16.0692 35.9568 16.0518 35.9432 16.0077C35.9 16.0483 35.8646 16.0745 35.8382 16.1078C35.7485 16.2208 35.6668 16.2209 35.5336 16.1717C35.4325 16.1344 35.3115 16.1499 35.1992 16.1443C35.0575 16.1373 34.9157 16.1326 34.7616 16.1162C34.71 15.9407 34.673 15.7754 34.6306 15.6115C34.5562 15.3233 34.4784 15.036 34.402 14.7483C34.449 14.6775 34.5021 14.6098 34.541 14.5349C34.5706 14.4779 34.594 14.4126 34.5998 14.3492C34.6183 14.1496 34.7406 14.0033 34.8412 13.8445C34.9583 13.6598 35.0736 13.4737 35.1836 13.2847C35.2034 13.2508 35.2122 13.1897 35.1949 13.1585C35.1206 13.0248 35.191 12.9297 35.2591 12.8254C35.3271 12.7213 35.3778 12.606 35.4451 12.5015C35.554 12.3327 35.6615 12.1618 35.786 12.0048C35.9037 11.8562 35.9987 11.7059 35.9967 11.5093C35.9957 11.4106 36.0424 11.3578 36.1437 11.3329C36.3922 11.2718 36.5532 11.0509 36.567 10.7994C36.5713 10.7211 36.6029 10.6294 36.6534 10.5712C36.838 10.3585 37.027 10.1478 37.2328 9.95619C37.3228 9.87237 37.4573 9.83635 37.5823 9.77881C37.5739 10.1754 37.5572 10.572 37.5351 10.9682C37.5108 11.4035 37.4819 11.8384 37.4545 12.2735C37.4278 12.6951 37.4004 13.1166 37.3735 13.5382C37.3463 13.9643 37.3193 14.3904 37.2923 14.8165C37.2728 15.1229 37.2533 15.4293 37.2145 15.7436C37.1424 15.7947 37.0906 15.8392 37.0364 15.8806C36.9973 15.9105 36.9551 15.9363 36.9143 15.964Z" fill="#A122F8"/>
<path d="M23.4975 37.4066C23.3806 36.9394 23.2778 36.47 23.1623 36.0037C23.1283 35.8668 23.0605 35.7377 23.0041 35.6069C22.871 35.298 22.7325 34.9914 22.6018 34.6815C22.5373 34.5285 22.4692 34.374 22.4317 34.2134C22.3894 34.0326 22.3845 33.8434 22.3549 33.6593C22.3222 33.4561 22.2817 33.254 22.2402 33.0523C22.2324 33.0146 22.2097 32.9765 22.1846 32.9462C21.9849 32.7043 21.7919 32.4559 21.5792 32.2257C21.3383 31.965 21.0789 31.7213 20.828 31.4698C20.7238 31.3653 20.6282 31.2965 20.4654 31.3921C20.3009 31.4887 20.2335 31.4412 20.0824 31.3259C19.9168 31.1995 19.7365 31.0809 19.5445 31.0036C19.2764 30.8956 19.0358 30.7503 18.8347 30.5513C18.5619 30.2814 18.2762 30.0355 17.9368 29.8509C17.781 29.7661 17.6431 29.6485 17.4943 29.5373C18.1872 29.5273 18.8829 29.5252 19.5786 29.5245C20.1891 29.524 20.7996 29.5249 21.4245 29.5362C21.585 29.8579 21.7295 30.1695 21.8778 30.4791C22.0065 30.748 22.1405 31.0074 22.2241 31.303C22.3143 31.6221 22.5287 31.9072 22.6969 32.2026C22.8519 32.475 23.0237 32.738 23.1756 33.0121C23.247 33.1407 23.2878 33.2861 23.3446 33.4231C23.4717 33.7296 23.6376 34.0259 23.7204 34.3439C23.9092 35.0694 24.0552 35.806 24.2245 36.5367C24.2534 36.6613 24.3112 36.7793 24.3556 36.9003C24.1747 37.0079 23.9938 37.1154 23.813 37.223C23.7109 37.2838 23.6089 37.3447 23.4975 37.4066Z" fill="#E80668"/>
<path d="M29.7287 9.29134C29.7753 9.2239 29.8219 9.15647 29.8766 9.07739C30.0016 9.18812 30.1273 9.2995 30.2683 9.42446C30.2906 9.38187 30.3101 9.33585 30.3375 9.29508C30.3615 9.25933 30.3909 9.20886 30.4242 9.20348C30.4511 9.19912 30.4895 9.25001 30.5186 9.28045C30.5368 9.29943 30.5438 9.32896 30.5615 9.34852C30.6198 9.41279 30.6745 9.41757 30.7205 9.3333C30.7518 9.27593 30.785 9.21955 30.8203 9.15736C30.9355 9.26927 31.0473 9.36205 31.1384 9.47196C31.2002 9.54649 31.2366 9.53511 31.2828 9.47156C31.3251 9.41338 31.3617 9.35107 31.4035 9.2925C31.4774 9.1888 31.5357 9.18547 31.592 9.29701C31.6874 9.48578 31.734 9.41209 31.8399 9.29717C31.9064 9.22509 31.9232 9.09762 32.0685 9.10235C32.1814 9.23282 32.1799 9.36427 32.0849 9.49867C32.0539 9.54261 32.0286 9.59057 32.0007 9.63676C31.9196 9.77135 31.8696 9.89262 31.9765 10.0546C32.0567 10.176 32.0794 10.3374 32.1164 10.4838C32.1266 10.5242 32.1066 10.5814 32.0825 10.6196C31.9781 10.7858 31.9246 10.9449 32.049 11.1319C32.1265 11.2484 32.1318 11.3864 32.0623 11.5185C32.0166 11.6055 32.033 11.6858 32.0747 11.7746C32.1549 11.945 32.2201 12.1225 32.2927 12.3172C32.2849 12.3673 32.279 12.3985 32.2665 12.4269C32.1402 12.7141 32.0107 12.9999 31.8864 13.2879C31.6926 13.7369 31.5065 14.1893 31.3072 14.6359C31.2579 14.7464 31.1534 14.8322 31.104 14.9427C30.9944 15.1882 30.9057 15.4429 30.8034 15.6918C30.7826 15.7421 30.7391 15.7832 30.7061 15.8285C30.506 15.3953 30.3066 14.9619 30.1057 14.5291C29.9729 14.243 29.8379 13.9578 29.714 13.6555C29.7432 13.6092 29.7695 13.5818 29.7801 13.5492C29.8816 13.238 29.9844 12.9272 30.0768 12.6132C30.0983 12.5401 30.091 12.4545 30.0807 12.3768C30.0571 12.1973 30.0239 12.0192 29.9938 11.8406C29.9908 11.8232 29.984 11.806 29.9765 11.7897C29.838 11.4885 29.6978 11.1881 29.5617 10.8858C29.5442 10.847 29.5345 10.7959 29.5437 10.7556C29.5831 10.5809 29.62 10.4042 29.6796 10.2359C29.7188 10.1251 29.7126 10.0342 29.6736 9.92618C29.6445 9.84523 29.6486 9.74694 29.6583 9.65861C29.6719 9.5351 29.7043 9.41366 29.7287 9.29134Z" fill="#B525EF"/>
<path d="M24.3652 36.8995C24.311 36.7792 24.2532 36.6612 24.2243 36.5366C24.0551 35.8059 23.909 35.0693 23.7202 34.3438C23.6375 34.0258 23.4715 33.7296 23.3444 33.423C23.2876 33.2861 23.2468 33.1406 23.1755 33.012C23.0235 32.7379 22.8517 32.475 22.6967 32.2025C22.5285 31.9071 22.3141 31.622 22.2239 31.3029C22.1403 31.0073 22.0063 30.7479 21.8776 30.4791C21.7293 30.1694 21.5849 29.8578 21.4369 29.5379C21.904 29.5274 22.3731 29.5262 22.8565 29.536C22.9601 29.7025 23.0409 29.8637 23.1404 30.0124C23.3572 30.3363 23.478 30.7123 23.7375 31.0164C24.1634 31.5152 24.4659 32.0966 24.7009 32.7046C25.1287 33.8115 25.4768 34.9456 25.7856 36.0915C25.3154 36.3606 24.8452 36.6296 24.3652 36.8995Z" fill="#DB0577"/>
<path d="M22.9433 20.502C23.0876 20.8405 23.2345 21.178 23.3758 21.5178C23.6097 22.0802 23.84 22.6441 24.0714 23.2075C24.076 23.2188 24.0747 23.2326 24.0774 23.256C23.3914 23.256 22.7095 23.2561 22.0146 23.2444C21.979 23.1845 21.9644 23.1303 21.9328 23.0891C21.7747 22.8831 21.6141 22.6789 21.4507 22.4771C21.2871 22.2753 21.1216 22.0749 20.9524 21.8779C20.7347 21.6245 20.5138 21.3738 20.2917 21.1242C20.1256 20.9375 19.9562 20.7538 19.7863 20.5706C19.7626 20.5451 19.7246 20.5335 19.6979 20.5101C19.5109 20.346 19.3251 20.1805 19.139 20.0038C19.1256 19.8226 19.1187 19.6516 18.9687 19.531C18.9478 19.5142 18.9373 19.4786 18.9316 19.4498C18.914 19.3613 18.9002 19.2721 18.8868 19.1829C18.8709 19.0775 18.8434 18.9712 18.8484 18.8666C18.8507 18.8176 18.9107 18.7414 18.9565 18.7312C19.0381 18.713 19.0938 18.6863 19.1336 18.6119C19.1476 18.5856 19.1905 18.5748 19.2304 18.5574C19.2905 18.5769 19.3433 18.5907 19.3901 18.6158C19.7058 18.7851 20.0191 18.9589 20.3357 19.1266C20.4336 19.1784 20.544 19.207 20.6401 19.2615C20.8264 19.367 21.0053 19.4855 21.1896 19.5946C21.4069 19.7232 21.6261 19.8486 21.846 19.9726C21.8838 19.9939 21.9297 20.0006 21.9715 20.0153C22.0418 20.0399 22.1217 20.0515 22.1801 20.0931C22.4176 20.2624 22.6545 20.4296 22.9433 20.502Z" fill="#D71AA8"/>
<path d="M20.2423 13.9375C20.3699 14.2395 20.4986 14.5412 20.6249 14.8438C20.8324 15.3406 21.0397 15.8374 21.2445 16.3354C21.4359 16.8009 21.6226 17.2683 21.8138 17.7339C21.9168 17.9848 22.0247 18.2337 22.1214 18.4931C22.0213 18.4589 21.9329 18.4074 21.8382 18.3733C21.6799 18.3165 21.5107 18.2862 21.3587 18.2169C21.1461 18.12 20.9521 17.9808 20.737 17.8912C20.5503 17.8133 20.4144 17.6833 20.2943 17.5379C20.1826 17.4027 20.0896 17.2628 19.8859 17.2823C19.8616 17.2846 19.8338 17.2693 19.8102 17.2571C19.6602 17.1795 19.5171 17.0831 19.3596 17.0269C19.2129 16.9746 19.0511 16.9647 18.8912 16.9285C18.7725 16.8178 18.6586 16.7148 18.543 16.6026C18.4568 16.4627 18.3489 16.3413 18.2929 16.1993C18.1988 15.9606 18.0211 15.8033 17.8213 15.6755C17.6203 15.5468 17.3952 15.4559 17.1805 15.3486C17.1209 15.3188 17.0611 15.2895 17.0013 15.2599C17.1914 14.7928 17.3815 14.3257 17.5717 13.8586C17.5879 13.8187 17.605 13.7791 17.6355 13.7322C17.8579 13.8458 18.068 13.9643 18.275 14.088C18.4588 14.1979 18.6397 14.3127 18.8207 14.4272C18.8995 14.477 18.9523 14.4749 19.0056 14.3838C19.0283 14.3452 19.1021 14.3244 19.1552 14.3184C19.2619 14.3063 19.3149 14.2572 19.3302 14.1505C19.344 14.0547 19.3727 13.961 19.397 13.8571C19.5043 13.8875 19.6087 13.9554 19.6597 13.8015C19.6649 13.7859 19.7667 13.7752 19.7915 13.7977C19.9224 13.9162 20.1043 13.8547 20.2423 13.9375Z" fill="#D821BC"/>
<path d="M8.95374 2.53464C9.40758 2.32181 9.86088 2.10782 10.3154 1.89641C11.0683 1.54621 11.8217 1.19707 12.5754 0.848661C13.0237 0.641482 13.4728 0.436361 13.9217 0.230717C14.0787 0.158808 14.2362 0.0881004 14.3935 0.0168457C14.4026 0.025377 14.4117 0.0339078 14.4208 0.0424387C13.6952 1.61006 12.9695 3.17769 12.2249 4.74901C12.0735 4.67342 11.94 4.59592 11.8092 4.51424C11.7147 4.45524 11.626 4.38664 11.5303 4.32985C11.4496 4.282 11.3611 4.24745 11.2784 4.20271C11.0731 4.09158 10.8694 3.97722 10.6643 3.86559C10.3344 3.68604 10.0026 3.50991 9.67546 3.32549C9.63988 3.30543 9.60865 3.23893 9.61136 3.19626C9.62433 2.99235 9.5882 2.9132 9.40999 2.81999C9.29445 2.75956 9.17471 2.70684 9.06145 2.64255C9.01885 2.61837 8.98926 2.57128 8.95374 2.53464Z" fill="#EF34DF"/>
<path d="M34.3958 14.741C34.4784 15.0357 34.5561 15.3231 34.6306 15.6113C34.673 15.7752 34.71 15.9405 34.7513 16.1154C34.6213 16.3743 34.4841 16.6203 34.3619 16.8736C34.334 16.9314 34.3468 17.0165 34.3607 17.0849C34.3809 17.1836 34.3605 17.2457 34.2549 17.2596C34.1706 17.2706 34.1598 17.3159 34.1687 17.3925C34.1771 17.4659 34.1764 17.5461 34.1555 17.6161C34.067 17.9116 33.9977 18.2177 33.8673 18.4945C33.7325 18.7806 33.753 19.0808 33.6997 19.3737C33.6973 19.3868 33.6994 19.4007 33.6977 19.414C33.6779 19.5629 33.6702 19.7147 33.634 19.8595C33.6011 19.9913 33.5264 20.1123 33.4892 20.2435C33.4334 20.4409 33.3966 20.6437 33.3472 20.8431C33.3148 20.9734 33.2745 21.1018 33.2315 21.2413C32.8496 20.446 32.474 19.6404 32.0985 18.8348C31.9747 18.5691 31.8513 18.3033 31.7371 18.0273C31.7895 17.9808 31.8508 17.9532 31.8729 17.9069C31.987 17.6682 32.0869 17.4227 32.2022 17.1846C32.2256 17.1363 32.2906 17.0863 32.3426 17.0784C32.4511 17.0619 32.5027 17.0022 32.5525 16.9135C32.6309 16.7739 32.6214 16.6313 32.6096 16.4816C32.6025 16.3911 32.6113 16.2954 32.6336 16.2073C32.6851 16.0039 32.8002 15.8021 32.7937 15.6027C32.7872 15.4019 32.795 15.2173 32.8619 15.0316C32.8862 14.9642 32.9165 14.8973 32.928 14.8276C32.9435 14.7333 32.9488 14.6364 32.9481 14.5407C32.9477 14.4837 32.9275 14.4268 32.9162 14.3699C32.9538 14.3483 32.9915 14.3268 33.0471 14.2949C33.1379 14.3705 33.2344 14.4508 33.338 14.5371C33.3347 14.5388 33.3502 14.536 33.3568 14.5268C33.4594 14.3835 33.4602 14.3826 33.5639 14.5291C33.626 14.6167 33.6715 14.5759 33.7203 14.5156C33.8158 14.3976 33.8286 14.3994 33.8937 14.5331C33.9433 14.6346 34.0048 14.6399 34.0696 14.5478C34.0949 14.5118 34.1196 14.4754 34.1546 14.4248C34.2382 14.5348 34.314 14.6344 34.3958 14.741Z" fill="#A31FEF"/>
<path d="M19.139 20.0153C19.3252 20.1804 19.511 20.3459 19.698 20.51C19.7246 20.5334 19.7627 20.545 19.7863 20.5705C19.9563 20.7536 20.1257 20.9374 20.2918 21.1241C20.5139 21.3737 20.7348 21.6244 20.9524 21.8778C21.1217 22.0748 21.2872 22.2752 21.4507 22.477C21.6142 22.6788 21.7748 22.883 21.9328 23.089C21.9644 23.1302 21.9791 23.1844 22.0021 23.2423C21.3267 23.2533 20.6508 23.2546 19.9618 23.2445C19.8783 23.1429 19.8154 23.0454 19.7358 22.9643C19.6357 22.8623 19.5227 22.7729 19.4139 22.6796C19.2961 22.5785 19.1771 22.4787 19.0577 22.3794C19.0303 22.3566 18.998 22.3397 18.9702 22.3173C18.6919 22.0929 18.4146 21.8672 18.1354 21.6439C18.0863 21.6046 18.046 21.5764 18.0876 21.5016C18.1009 21.4779 18.0711 21.4136 18.0431 21.3865C17.9424 21.2892 17.8779 21.1835 17.8729 21.0362C17.8702 20.9551 17.8472 20.852 17.7935 20.8002C17.6856 20.696 17.5546 20.6131 17.4253 20.5341C17.1828 20.3859 16.935 20.2461 16.6887 20.104C16.6308 20.0705 16.5701 20.0418 16.5109 20.0105C16.2621 19.8789 16.0133 19.7475 15.7649 19.6153C15.6587 19.5588 15.5534 19.5004 15.4477 19.4429C15.401 19.4175 15.3542 19.3924 15.3075 19.3671C15.4074 19.1178 15.5072 18.8685 15.6257 18.6162C15.9282 18.7074 16.2123 18.8013 16.4961 18.8961C16.5813 18.9245 16.6644 18.9597 16.7505 18.9849C17.0895 19.0839 17.4387 19.1562 17.766 19.2844C18.0812 19.4079 18.3758 19.5852 18.6763 19.7447C18.834 19.8284 18.985 19.9247 19.139 20.0153Z" fill="#E01C9E"/>
<path d="M25.7954 36.0901C25.4769 34.9456 25.1288 33.8115 24.701 32.7045C24.466 32.0966 24.1635 31.5152 23.7377 31.0164C23.4782 30.7123 23.3573 30.3363 23.1405 30.0124C23.041 29.8637 22.9602 29.7025 22.8691 29.5378C23.5523 29.5274 24.2372 29.5262 24.9366 29.5361C25.175 29.9769 25.4046 30.4014 25.5582 30.8666C25.8638 31.7924 26.2038 32.7069 26.5139 33.6313C26.6133 33.9277 26.6596 34.2415 26.7372 34.5456C26.8116 34.8369 26.8951 35.1259 26.9746 35.4159C26.6258 35.6157 26.2771 35.8154 25.9285 36.0153C25.887 36.0391 25.8462 36.0642 25.7954 36.0901Z" fill="#D20684"/>
<path d="M26.9833 35.4121C26.8951 35.1261 26.8116 34.8372 26.7373 34.5459C26.6596 34.2418 26.6134 33.9279 26.5139 33.6316C26.2038 32.7071 25.8639 31.7927 25.5582 30.8668C25.4046 30.4016 25.1751 29.9772 24.9492 29.5382C25.5235 29.5275 26.0997 29.5241 26.6758 29.5285C26.7186 29.5288 26.783 29.5756 26.8001 29.6164C27.0738 30.2699 27.3414 30.9259 27.6105 31.5813C27.9231 32.3426 28.2354 33.1041 28.5487 33.8652C28.6074 34.0078 28.6676 34.15 28.7325 34.2899C28.7629 34.3552 28.7737 34.4005 28.6968 34.4436C28.1275 34.7633 27.5601 35.0862 26.9833 35.4121Z" fill="#C70897"/>
<path d="M15.5877 29.5272C15.6844 29.5732 15.7658 29.6238 15.8532 29.6596C15.9428 29.6963 16.0446 29.7011 16.075 29.8263C16.0838 29.8624 16.1561 29.8882 16.2037 29.9087C16.3417 29.9682 16.4829 30.0054 16.5912 30.1345C16.6546 30.2101 16.7895 30.228 16.8945 30.2654C16.9697 30.2922 17.0269 30.316 17.0407 30.4147C17.0478 30.4655 17.1198 30.512 17.1699 30.551C17.2668 30.6264 17.4181 30.6422 17.4244 30.8144C17.4256 30.8491 17.4978 30.8874 17.5433 30.9132C17.6604 30.9795 17.7764 31.0376 17.8421 31.1716C17.8687 31.2258 17.9537 31.259 18.0187 31.2852C18.1337 31.3316 18.2056 31.4047 18.2094 31.5411C18.1539 31.5783 18.1062 31.605 18.0466 31.6318C17.924 31.6039 17.8111 31.5823 17.7029 31.5463C17.6106 31.5156 17.5243 31.4671 17.4344 31.4287C17.3243 31.3818 17.2131 31.3374 17.1027 31.2912C17.0129 31.2536 16.909 31.1652 16.8367 31.1863C16.6542 31.2395 16.5022 31.1789 16.3418 31.1275C16.1865 31.0777 16.0507 31.1035 15.9379 31.2263C15.8779 31.2917 15.8093 31.3141 15.7201 31.2843C15.5969 31.2431 15.4695 31.2146 15.3458 31.1746C15.2461 31.1423 15.1671 31.1571 15.0899 31.2336C15.0025 31.3203 14.8988 31.3562 14.7707 31.3078C14.5866 31.2383 14.3971 31.1628 14.2226 31.3346C14.09 31.3166 13.9556 31.3063 13.8254 31.2775C13.7531 31.2615 13.6877 31.2144 13.6191 31.1818C13.5738 31.1603 13.5302 31.1308 13.4825 31.1202C13.3264 31.0857 13.1687 31.0584 13.0116 31.0281C12.9853 31.023 12.9594 31.0135 12.9329 31.0119C12.6071 30.9927 12.2809 30.9781 11.9556 30.9526C11.9069 30.9488 11.8638 30.8922 11.8151 30.8656C11.7651 30.8383 11.7117 30.7984 11.6593 30.7975C11.2874 30.7915 10.9154 30.794 10.531 30.7935C10.5926 30.601 10.6643 30.4077 10.7413 30.2167C10.8184 30.0252 10.9066 29.838 10.9783 29.6447C11.0115 29.5554 11.0537 29.5222 11.1512 29.5225C12.6258 29.5258 14.1005 29.5251 15.5877 29.5272Z" fill="#F20E58"/>
<path d="M8.9438 2.53589C8.98928 2.57103 9.01887 2.61811 9.06147 2.64229C9.17473 2.70658 9.29447 2.7593 9.41001 2.81973C9.58822 2.91295 9.62435 2.99209 9.61138 3.196C9.60867 3.23867 9.6399 3.30517 9.67548 3.32523C10.0026 3.50966 10.3344 3.68578 10.6643 3.86533C10.8694 3.97697 11.0731 4.09133 11.2785 4.20245C11.3611 4.24719 11.4496 4.28174 11.5303 4.32959C11.626 4.38638 11.7147 4.45498 11.8092 4.51398C11.9401 4.59566 12.0735 4.67316 12.2162 4.75313C12.1018 5.02656 11.9782 5.29985 11.8521 5.57193C11.6434 6.02203 11.4331 6.47134 11.2214 6.93094C11.165 6.93194 11.1105 6.92299 11.0451 6.90368C10.9844 6.77481 10.986 6.61778 10.8229 6.58065C10.6696 6.54574 10.5982 6.4351 10.561 6.302C10.5369 6.21556 10.4864 6.18275 10.4119 6.14923C10.3083 6.1026 10.1809 6.05887 10.1226 5.97362C10.0422 5.85617 9.94637 5.79329 9.8219 5.74724C9.68307 5.69588 9.55507 5.63727 9.49717 5.47398C9.47057 5.39897 9.38302 5.34164 9.31503 5.28621C9.22604 5.21365 9.06145 5.22333 9.06559 5.05003C9.06584 5.03963 9.03759 5.03002 9.02504 5.01759C8.95927 4.95246 8.87318 4.89708 8.83391 4.81846C8.77255 4.6956 8.67426 4.63011 8.56314 4.57009C8.49607 4.53386 8.43246 4.49028 8.36309 4.45951C8.27389 4.41993 8.21394 4.37111 8.21898 4.26018C8.22058 4.22482 8.18456 4.17499 8.15159 4.15333C8.06572 4.09692 7.97482 4.0461 7.8809 4.00438C7.57403 3.86804 7.26418 3.73839 6.95766 3.60129C6.9226 3.5856 6.90132 3.53908 6.87366 3.50686C7.19572 3.35226 7.5168 3.1956 7.84008 3.0436C8.20364 2.87267 8.56918 2.70595 8.9438 2.53589Z" fill="#F334D9"/>
<path d="M36.9142 15.9744C36.9551 15.9361 36.9974 15.9103 37.0364 15.8804C37.0906 15.8389 37.1424 15.7944 37.2049 15.75C37.1956 16.1452 37.1791 16.5417 37.157 16.938C37.1328 17.3732 37.1038 17.8082 37.0764 18.2433C37.0498 18.6649 37.0223 19.0864 36.9954 19.508C36.9682 19.9341 36.9415 20.3603 36.9141 20.7863C36.8964 21.0614 36.8778 21.3365 36.8489 21.626C36.5762 21.8104 36.3975 22.0597 36.2202 22.3069C36.1598 22.3911 36.1248 22.462 36.0443 22.364C35.9073 22.5153 35.7769 22.6592 35.6465 22.8032C35.6385 22.7872 35.6305 22.7711 35.6225 22.7551C35.5798 22.7551 35.5183 22.737 35.4979 22.7583C35.4211 22.8388 35.3548 22.93 35.2899 23.021C35.2161 23.1246 35.148 23.2322 35.0774 23.3381C35.0404 23.1277 35.0433 22.9251 35.1173 22.7162C35.1569 22.6044 35.1249 22.4673 35.1251 22.3415C35.1254 22.1315 35.1381 21.9205 35.1221 21.7117C35.1072 21.5165 35.0731 21.3209 35.0259 21.1309C34.9903 20.9874 34.9645 20.8615 35.0411 20.7183C35.1251 20.5614 35.1789 20.3883 35.2432 20.2212C35.2608 20.1754 35.2872 20.1222 35.2783 20.0789C35.2259 19.826 35.3436 19.6148 35.4273 19.3926C35.5124 19.1669 35.55 18.9234 35.7031 18.7235C35.7313 18.6867 35.7027 18.6107 35.7133 18.5552C35.7317 18.4586 35.7436 18.3552 35.7879 18.2701C35.8889 18.0761 36.0102 17.8927 36.1171 17.7016C36.1338 17.6717 36.1202 17.6234 36.1169 17.584C36.1064 17.4568 36.137 17.3477 36.2377 17.26C36.3872 17.1299 36.4726 16.9613 36.5381 16.7751C36.5875 16.6347 36.6703 16.5062 36.7354 16.371C36.7968 16.2432 36.8546 16.1138 36.9142 15.9744Z" fill="#941DF5"/>
<path d="M6.86338 3.5083C6.90133 3.53915 6.92261 3.58568 6.95767 3.60136C7.26419 3.73847 7.57404 3.86812 7.88091 4.00445C7.97483 4.04618 8.06573 4.09699 8.1516 4.1534C8.18457 4.17506 8.22059 4.2249 8.21899 4.26025C8.21395 4.37118 8.2739 4.42001 8.3631 4.45958C8.43247 4.49035 8.49608 4.53393 8.56314 4.57016C8.67427 4.63018 8.77256 4.69567 8.83392 4.81853C8.87318 4.89715 8.95928 4.95253 9.02505 5.01766C9.0376 5.0301 9.06585 5.0397 9.0656 5.0501C9.06146 5.2234 9.22605 5.21372 9.31504 5.28628C9.38303 5.34172 9.47058 5.39904 9.49718 5.47405C9.55508 5.63734 9.68308 5.69595 9.82191 5.74731C9.94638 5.79336 10.0422 5.85625 10.1226 5.97369C10.181 6.05894 10.3083 6.10267 10.4119 6.14931C10.4864 6.18282 10.5369 6.21563 10.561 6.30207C10.5982 6.43517 10.6696 6.54582 10.8229 6.58072C10.986 6.61785 10.9844 6.77488 11.0346 6.90363C10.9137 7.05163 10.7782 6.98383 10.651 6.93218C10.5329 6.88419 10.4229 6.8146 10.3043 6.92863C10.2928 6.93977 10.2608 6.93491 10.2398 6.93032C9.98762 6.87504 9.73491 6.82171 9.48427 6.75998C9.41505 6.74293 9.35183 6.70065 9.28669 6.66827C9.25462 6.65233 9.22512 6.63127 9.19331 6.61473C8.74368 6.38091 8.29718 6.14071 7.8427 5.91672C7.60552 5.79982 7.35628 5.70604 7.10791 5.61419C7.04255 5.59002 6.96016 5.61245 6.88559 5.61248C6.81672 5.61252 6.7411 5.6297 6.68009 5.60745C6.33174 5.4804 5.98746 5.34226 5.64066 5.21088C5.23379 5.05674 4.84317 4.87079 4.47437 4.62262C4.81973 4.44985 5.17024 4.28535 5.52055 4.12044C5.95135 3.91764 6.38194 3.7144 6.81298 3.51211C6.82425 3.50682 6.83962 3.51029 6.86338 3.5083Z" fill="#F432D2"/>
<path d="M19.1389 20.0039C18.9848 19.9249 18.8338 19.8286 18.6761 19.7449C18.3756 19.5854 18.0811 19.4081 17.7659 19.2847C17.4385 19.1564 17.0893 19.0842 16.7503 18.9851C16.6643 18.9599 16.5812 18.9248 16.496 18.8963C16.2122 18.8015 15.9281 18.7077 15.6342 18.6116C15.7814 18.2161 15.9363 17.8215 16.0963 17.429C16.291 16.9514 16.49 16.4756 16.7062 15.9949C16.881 16.0566 17.0337 16.1321 17.1936 16.1858C17.382 16.249 17.584 16.2755 17.767 16.3501C18.0215 16.4539 18.256 16.6107 18.5446 16.612C18.6585 16.715 18.7724 16.8179 18.8891 16.9379C18.8755 16.9749 18.8628 17.0012 18.8418 17.0143C18.6575 17.129 18.647 17.1609 18.7092 17.3669C18.7335 17.4473 18.7406 17.5327 18.7616 17.6142C18.7991 17.7595 18.8199 17.9146 18.8868 18.0456C18.9789 18.2258 19.1073 18.3874 19.2202 18.557C19.1904 18.5749 19.1475 18.5857 19.1335 18.612C19.0937 18.6864 19.038 18.7131 18.9564 18.7313C18.9106 18.7415 18.8506 18.8177 18.8483 18.8667C18.8433 18.9713 18.8708 19.0776 18.8867 19.183C18.9001 19.2722 18.914 19.3614 18.9315 19.4499C18.9372 19.4787 18.9477 19.5143 18.9686 19.5311C19.1186 19.6517 19.1255 19.8227 19.1389 20.0039Z" fill="#E020AB"/>
<path d="M6.25312 17.6026C5.76617 17.5134 5.28515 17.4053 4.79975 17.3231C4.63598 17.2954 4.4607 17.3447 4.29137 17.3388C3.98737 17.3284 3.68347 17.3079 3.3803 17.2824C3.0301 17.2529 2.67909 17.2251 2.33139 17.1757C1.85315 17.1077 1.37774 17.0199 0.900981 16.9415C0.821708 16.9284 0.74171 16.9198 0.650517 16.9091C0.619447 16.5454 0.600677 16.1818 0.579816 15.8183C0.574772 15.7304 0.562819 15.6429 0.55603 15.5432C0.852691 15.5894 1.14732 15.6479 1.4421 15.7057C1.47717 15.7126 1.51385 15.723 1.54839 15.7191C2.05928 15.6624 2.55532 15.7666 3.05417 15.8501C3.57101 15.9367 4.08923 16.0153 4.60786 16.0905C4.75677 16.1121 4.91144 16.096 5.05957 16.1206C5.43052 16.1823 5.79916 16.2579 6.16895 16.3267C6.21268 16.3348 6.25772 16.3364 6.30225 16.3396C6.46553 16.3516 6.62886 16.3631 6.80451 16.3775C6.74164 16.5566 6.67084 16.735 6.59014 16.9088C6.48326 17.139 6.36863 17.3656 6.25312 17.6026Z" fill="#F52998"/>
<path d="M29.7245 9.28186C29.7043 9.41369 29.6718 9.53512 29.6583 9.65863C29.6486 9.74697 29.6444 9.84526 29.6736 9.9262C29.7125 10.0342 29.7188 10.1251 29.6795 10.2359C29.62 10.4042 29.5831 10.5809 29.5436 10.7556C29.5345 10.7959 29.5442 10.847 29.5616 10.8858C29.6977 11.1881 29.8379 11.4886 29.9765 11.7898C29.984 11.806 29.9908 11.8232 29.9937 11.8407C30.0238 12.0192 30.0571 12.1974 30.0807 12.3768C30.0909 12.4545 30.0983 12.5401 30.0767 12.6133C29.9844 12.9272 29.8815 13.2381 29.7801 13.5493C29.7695 13.5818 29.7431 13.6092 29.7147 13.6448C29.569 13.3675 29.4301 13.0856 29.2969 12.801C28.9239 12.0037 28.5533 11.2052 28.1817 10.4072C27.9524 9.91508 27.7224 9.42333 27.494 8.93084C27.4093 8.74833 27.3282 8.56418 27.2467 8.37016C27.2881 8.31328 27.3282 8.26702 27.3728 8.21567C27.3959 8.23059 27.416 8.23988 27.4315 8.25417C27.5299 8.34506 27.5881 8.34344 27.6508 8.22669C27.709 8.11839 27.7632 8.11287 27.8419 8.20077C27.9297 8.29873 27.9929 8.24715 28.0378 8.15826C28.0868 8.06131 28.1255 7.97364 28.2531 8.08112C28.2728 8.09767 28.3704 8.05762 28.3999 8.01915C28.4642 7.93507 28.4915 7.81912 28.6445 7.89715C28.672 7.91117 28.7581 7.8315 28.8037 7.78259C28.8445 7.73881 28.8668 7.67779 28.903 7.61429C29.1753 7.83541 29.1572 7.53227 29.2466 7.4292C29.3172 7.47677 29.3783 7.51795 29.449 7.56081C29.4908 7.65174 29.4887 7.73252 29.4295 7.81596C29.3617 7.91166 29.3775 7.9997 29.4385 8.11132C29.5813 8.37251 29.708 8.6456 29.7513 8.94568C29.7586 8.99569 29.7306 9.04992 29.7253 9.10284C29.7197 9.15894 29.7216 9.21581 29.7245 9.28186Z" fill="#BC26EB"/>
<path d="M18.0585 31.6319C18.1062 31.6052 18.1539 31.5784 18.2112 31.5513C18.2467 31.5566 18.2774 31.5553 18.2981 31.569C18.7345 31.8583 19.2117 32.0765 19.6366 32.3921C19.9117 32.5966 20.1691 32.8109 20.4101 33.0505C20.6029 33.2421 20.7826 33.4509 20.9952 33.6174C21.1481 33.7371 21.1893 33.8994 21.2663 34.0525C21.3282 34.1755 21.4066 34.2905 21.4646 34.4152C21.5153 34.5243 21.5527 34.6404 21.5876 34.7559C21.7973 35.4516 22.0131 36.1456 22.2091 36.8451C22.3119 37.2118 22.3784 37.5887 22.462 37.972C22.1362 38.1712 21.8097 38.3593 21.4691 38.5392C21.4477 38.5051 21.4387 38.4796 21.433 38.4534C21.308 37.8839 21.1918 37.3122 21.0547 36.7457C20.9926 36.4895 20.9009 36.2385 20.8011 35.994C20.6606 35.6496 20.4769 35.3215 20.3547 34.9714C20.2344 34.6266 20.086 34.3085 19.8345 34.0419C19.6467 33.8428 19.4609 33.6419 19.2789 33.434C19.4042 33.2877 19.4082 33.2832 19.2733 33.16C19.1709 33.0665 19.0533 32.9897 18.9493 32.8978C18.9141 32.8667 18.8684 32.7912 18.8814 32.7715C18.9574 32.6562 18.8818 32.596 18.8106 32.5336C18.7162 32.4509 18.6158 32.3751 18.5228 32.2909C18.4812 32.2533 18.4154 32.1951 18.4228 32.159C18.4511 32.0201 18.3585 31.953 18.2847 31.8721C18.2106 31.7909 18.134 31.7119 18.0585 31.6319Z" fill="#EE0358"/>
<path d="M0.178584 6.59302C0.29951 6.66783 0.403172 6.75566 0.521754 6.81219C0.792605 6.94132 1.08057 7.03704 1.34352 7.17964C1.6901 7.36759 2.06492 7.47235 2.42882 7.61105C2.83878 7.76732 3.24009 7.94172 3.61701 8.17842C3.91889 8.368 4.26362 8.48917 4.58863 8.6422C4.71214 8.70035 4.8415 8.73865 4.92862 8.86801C4.97429 8.93583 5.08758 8.96217 5.17436 8.99734C5.31994 9.05633 5.4716 9.1009 5.61518 9.16409C5.71243 9.20689 5.80469 9.26647 5.70813 9.39817C5.6647 9.4574 5.69805 9.49661 5.76048 9.51942C5.89965 9.57028 6.03751 9.62474 6.177 9.67469C6.2688 9.70756 6.29693 9.75819 6.24621 9.84877C6.2091 9.91504 6.18126 9.98649 6.14739 10.0651C6.03224 10.0622 5.91603 10.0617 5.80655 10.0343C5.68519 10.0039 5.57237 9.93947 5.45103 9.90901C5.39563 9.8951 5.31906 9.91128 5.26906 9.94171C5.17418 9.99945 5.09416 10.0242 4.98222 9.97393C4.68719 9.84137 4.39468 9.68965 4.08485 9.60602C3.03015 9.32131 2.03646 8.87173 1.01451 8.49933C0.758087 8.40589 0.521075 8.25947 0.274163 8.1394C0.222221 8.11415 0.165986 8.09772 0.101379 8.07702C0.0831923 8.05797 0.0693597 8.03942 0.068401 8.02023C0.0491174 7.63421 0.051115 7.24568 0.00412919 6.86314C-0.0166366 6.69407 0.0408306 6.63854 0.178584 6.59302Z" fill="#F831BC"/>
<path d="M18.1483 39.6006C18.0906 39.4112 18.044 39.2254 17.9916 39.0412C17.9684 38.9594 17.9226 38.8832 17.906 38.8006C17.8282 38.4135 17.6005 38.107 17.3786 37.7967C17.3149 37.7075 17.2629 37.6197 17.2953 37.4987C17.3067 37.4564 17.2811 37.3922 17.2519 37.3534C17.1631 37.2356 17.0631 37.1263 16.9699 37.0117C16.882 36.9036 16.8456 36.7816 16.9052 36.6494C16.9751 36.4943 16.9732 36.3582 16.8425 36.2324C16.7429 36.1364 16.6484 36.0341 16.5614 35.9267C16.5267 35.8839 16.5028 35.8204 16.5011 35.7655C16.4973 35.6466 16.5192 35.5267 16.513 35.4082C16.511 35.3693 16.4601 35.3257 16.4217 35.2975C16.3417 35.2387 16.2551 35.1888 16.1694 35.1149C16.1833 34.899 16.253 34.8572 16.4298 34.9372C16.4503 34.9464 16.47 34.9574 16.4906 34.9661C16.5653 34.9978 16.6228 35.0174 16.6724 34.9125C16.7172 34.8177 16.8098 34.7912 16.91 34.8638C17.0299 34.9507 17.1533 35.0326 17.283 35.1211C17.5411 35.3604 17.8274 35.5497 18.029 35.8451C18.3175 36.2676 18.6368 36.668 18.8145 37.1556C18.8682 37.3032 18.9194 37.4517 18.9702 37.6003C19.0612 37.8668 19.1486 38.1344 19.2421 38.4C19.2957 38.5521 19.367 38.6984 19.4148 38.8521C19.4921 39.1006 19.5567 39.353 19.6266 39.6037C19.4191 39.7244 19.2105 39.8432 19.0047 39.9667C18.9272 40.0133 18.8603 40.0095 18.7837 39.9641C18.5765 39.8415 18.3661 39.7242 18.1483 39.6006Z" fill="#F60346"/>
<path d="M0.848999 20.0295C1.05661 20.0189 1.26547 20.0193 1.47425 20.0236C1.5501 20.0252 1.62565 20.0378 1.70151 20.0424C1.96523 20.0585 2.22902 20.0735 2.49279 20.0885C2.51499 20.0898 2.54033 20.0955 2.55915 20.0874C2.90172 19.9399 3.23974 20.081 3.57863 20.1054C3.91239 20.1294 4.24502 20.1697 4.57788 20.2053C4.71585 20.22 4.85315 20.241 5.00231 20.2596C4.94826 20.4172 4.88738 20.5766 4.81616 20.7312C4.61986 21.1575 4.41923 21.5817 4.20035 22.0104C4.05995 22.0044 3.93966 21.9892 3.81905 21.986C3.4438 21.9758 3.06784 21.9534 2.69326 21.9667C2.11613 21.9872 1.53992 22.0334 0.963327 22.0687C0.943778 21.686 0.925433 21.3033 0.90429 20.9207C0.888097 20.6277 0.868369 20.3349 0.848999 20.0295Z" fill="#F32585"/>
<path d="M19.6364 39.6021C19.5568 39.3528 19.4922 39.1004 19.4149 38.852C19.3671 38.6983 19.2958 38.552 19.2422 38.3999C19.1487 38.1343 19.0613 37.8666 18.9703 37.6002C18.9195 37.4515 18.8683 37.303 18.8146 37.1555C18.6369 36.6679 18.3176 36.2675 18.0291 35.845C17.8275 35.5495 17.5412 35.3603 17.2848 35.111C17.4089 34.8777 17.3437 34.7076 17.1477 34.57C17.1441 34.5675 17.1413 34.5638 17.1381 34.5606C16.9393 34.3617 16.9393 34.3618 17.1441 34.1799C17.1575 34.168 17.1692 34.1541 17.1827 34.1423C17.2855 34.0527 17.3885 33.9633 17.4993 33.8784C17.5604 33.9165 17.616 33.9466 17.6664 33.9839C18.0805 34.2909 18.4932 34.5999 18.9072 34.907C19.1366 35.0772 19.3348 35.2656 19.4397 35.5466C19.5792 35.9207 19.7479 36.2838 19.8981 36.6541C20.0108 36.932 20.1292 37.209 20.2181 37.4948C20.374 37.9962 20.5093 38.5041 20.6532 39.0093C20.4968 39.1048 20.3416 39.2027 20.1835 39.2954C20.0058 39.3996 19.8253 39.4991 19.6364 39.6021Z" fill="#F3024C"/>
<path d="M35.0773 23.3502C35.148 23.2323 35.2161 23.1246 35.2899 23.021C35.3548 22.93 35.4211 22.8388 35.4979 22.7584C35.5183 22.7371 35.5798 22.7552 35.6225 22.7552C35.6305 22.7712 35.6385 22.7872 35.6465 22.8033C35.7769 22.6593 35.9073 22.5153 36.0443 22.364C36.1248 22.4621 36.1598 22.3912 36.2201 22.307C36.3975 22.0597 36.5761 21.8105 36.847 21.6384C36.8394 21.9245 36.8238 22.2126 36.8062 22.5006C36.7799 22.9313 36.7523 23.3619 36.7251 23.7925C36.7074 24.0722 36.689 24.3518 36.6713 24.6314C36.644 25.062 36.6174 25.4927 36.5899 25.9234C36.5726 26.194 36.5546 26.4646 36.536 26.7352C36.5043 27.1945 36.4718 27.6538 36.4141 28.1237C35.8966 27.0044 35.3792 25.8851 34.861 24.7558C34.8785 24.6591 34.9007 24.5731 34.9144 24.4857C34.9494 24.2615 34.9807 24.0368 35.0132 23.8122C35.0349 23.6622 35.056 23.5121 35.0773 23.3502Z" fill="#8C19F3"/>
<path d="M20.663 39.0078C20.5093 38.5041 20.374 37.9962 20.2181 37.4948C20.1292 37.209 20.0108 36.932 19.8981 36.6541C19.748 36.2838 19.5793 35.9207 19.4397 35.5466C19.3349 35.2656 19.1367 35.0772 18.9072 34.907C18.4932 34.5999 18.0805 34.291 17.6664 33.984C17.6161 33.9466 17.5604 33.9165 17.4999 33.8681C17.5641 33.6499 17.5627 33.652 17.3692 33.5293C17.3063 33.4894 17.2523 33.4352 17.2032 33.3836C17.3479 33.3298 17.4315 33.4326 17.5245 33.4937C17.6109 33.5504 17.686 33.5569 17.7734 33.5038C17.8688 33.4458 17.9664 33.391 18.066 33.3405C18.0988 33.3239 18.1478 33.3084 18.1771 33.321C18.3413 33.3916 18.4991 33.4773 18.6646 33.5444C18.7324 33.5719 18.8184 33.5858 18.8883 33.5703C19.02 33.541 19.1459 33.4859 19.2743 33.4416C19.461 33.6417 19.6468 33.8426 19.8346 34.0417C20.0861 34.3083 20.2345 34.6264 20.3548 34.9712C20.4769 35.3213 20.6607 35.6494 20.8012 35.9937C20.901 36.2383 20.9927 36.4893 21.0547 36.7455C21.1919 37.312 21.308 37.8837 21.433 38.4531C21.4388 38.4794 21.4477 38.5049 21.4594 38.5403C21.2 38.7021 20.9364 38.8543 20.663 39.0078Z" fill="#F10251"/>
<path d="M18.2749 23.2526C17.9107 23.2542 17.5464 23.2569 17.1822 23.2571C16.0757 23.2577 14.9692 23.2574 13.8627 23.2574C13.8145 23.2574 13.7664 23.2574 13.7054 23.2574C13.8443 22.9192 13.9761 22.5953 14.1101 22.2723C14.3352 21.7294 14.5619 21.1873 14.7873 20.6445C14.7939 20.6284 14.7935 20.6094 14.8148 20.5886C15.1877 20.7559 15.5423 20.926 15.8963 21.0973C15.9285 21.1129 15.9563 21.137 15.9871 21.1555C16.2126 21.2908 16.431 21.4405 16.6663 21.5558C16.8557 21.6486 16.9506 21.811 17.0156 21.981C17.0816 22.1536 17.1706 22.2853 17.3199 22.3904C17.4584 22.4879 17.5845 22.6033 17.7153 22.7116C17.8455 22.8193 17.9791 22.9234 18.1028 23.0382C18.1693 23.0998 18.2181 23.1805 18.2749 23.2526Z" fill="#E6188A"/>
<path d="M32.9162 14.3583C32.9275 14.4268 32.9478 14.4837 32.9482 14.5407C32.9488 14.6364 32.9436 14.7333 32.928 14.8276C32.9166 14.8973 32.8862 14.9642 32.8619 15.0316C32.795 15.2173 32.7872 15.4019 32.7938 15.6027C32.8003 15.8021 32.6851 16.0039 32.6337 16.2073C32.6114 16.2954 32.6026 16.3911 32.6097 16.4816C32.6214 16.6313 32.6309 16.7739 32.5525 16.9135C32.5027 17.0022 32.4511 17.0619 32.3426 17.0784C32.2906 17.0863 32.2256 17.1363 32.2023 17.1845C32.0869 17.4226 31.987 17.6682 31.8729 17.9069C31.8508 17.9532 31.7896 17.9808 31.7357 18.0173C31.3859 17.2943 31.0467 16.5709 30.7068 15.8379C30.739 15.783 30.7825 15.742 30.8033 15.6916C30.9057 15.4428 30.9943 15.188 31.1039 14.9426C31.1533 14.8321 31.2578 14.7462 31.3071 14.6357C31.5064 14.1891 31.6925 13.7367 31.8863 13.2877C32.0106 12.9997 32.1401 12.7139 32.2664 12.4267C32.2789 12.3983 32.2849 12.3671 32.2944 12.3269C32.309 12.3314 32.3231 12.3461 32.343 12.3658C32.4585 12.6348 32.5756 12.8962 32.6756 13.1639C32.779 13.4408 32.8786 13.7206 32.9534 14.006C32.9804 14.1093 32.9308 14.2326 32.9162 14.3583Z" fill="#AA20EA"/>
<path d="M3.71538 23.0715C3.58157 23.3629 3.44821 23.6544 3.31387 23.9455C2.92868 24.7802 2.54407 25.6152 2.15728 26.4492C1.9517 26.8925 1.74177 27.3337 1.53456 27.7762C1.48108 27.8904 1.43046 28.006 1.36919 28.1416C1.35146 28.1062 1.33945 28.0931 1.33885 28.0794C1.32843 27.8428 1.32259 27.606 1.30941 27.3696C1.28462 26.9249 1.25636 26.4805 1.22841 26.0361C1.21165 25.7697 1.19177 25.5035 1.17502 25.2371C1.14707 24.7926 1.12215 24.348 1.09259 23.9037C1.07936 23.7048 1.05797 23.5065 1.05298 23.2955C1.11413 23.2743 1.16226 23.2614 1.2111 23.2576C1.67922 23.2207 2.14764 23.1874 2.61559 23.1484C2.81135 23.1321 3.00571 23.0983 3.20156 23.0839C3.37222 23.0714 3.54406 23.075 3.71538 23.0715Z" fill="#F22171"/>
<path d="M18.2874 23.2545C18.2181 23.1805 18.1693 23.0998 18.1028 23.0382C17.9791 22.9234 17.8455 22.8194 17.7153 22.7116C17.5845 22.6033 17.4584 22.4879 17.3199 22.3904C17.1706 22.2853 17.0816 22.1536 17.0156 21.981C16.9506 21.811 16.8557 21.6486 16.6663 21.5559C16.431 21.4406 16.2126 21.2908 15.9871 21.1555C15.9563 21.137 15.9285 21.1129 15.8963 21.0974C15.5423 20.9261 15.1877 20.7559 14.8234 20.5837C14.9585 20.2229 15.1035 19.8639 15.2486 19.505C15.2648 19.465 15.2818 19.4254 15.303 19.3765C15.3542 19.3926 15.401 19.4178 15.4477 19.4431C15.5534 19.5006 15.6586 19.559 15.7649 19.6156C16.0133 19.7478 16.2621 19.8791 16.5108 20.0107C16.5701 20.042 16.6307 20.0708 16.6887 20.1042C16.935 20.2464 17.1828 20.3861 17.4253 20.5344C17.5546 20.6134 17.6856 20.6962 17.7935 20.8004C17.8472 20.8523 17.8701 20.9554 17.8729 21.0364C17.8779 21.1838 17.9424 21.2894 18.0431 21.3867C18.0711 21.4138 18.1008 21.4781 18.0876 21.5019C18.0459 21.5766 18.0862 21.6049 18.1353 21.6441C18.4146 21.8674 18.6919 22.0932 18.9702 22.3176C18.998 22.34 19.0303 22.3568 19.0577 22.3796C19.177 22.4789 19.296 22.5787 19.4139 22.6799C19.5226 22.7731 19.6357 22.8625 19.7357 22.9645C19.8154 23.0456 19.8783 23.1431 19.9493 23.2428C19.3999 23.2537 18.8499 23.255 18.2874 23.2545Z" fill="#E41B95"/>
<path d="M19.2304 18.5575C19.1074 18.3875 18.9789 18.2259 18.8869 18.0457C18.82 17.9147 18.7992 17.7596 18.7617 17.6143C18.7406 17.5327 18.7336 17.4473 18.7093 17.3669C18.6471 17.1609 18.6576 17.129 18.8419 17.0143C18.8629 17.0013 18.8756 16.975 18.8941 16.9456C19.0512 16.9648 19.2129 16.9748 19.3596 17.0271C19.5171 17.0832 19.6602 17.1797 19.8102 17.2573C19.8338 17.2695 19.8616 17.2848 19.8859 17.2825C20.0896 17.2629 20.1826 17.4029 20.2943 17.5381C20.4145 17.6835 20.5503 17.8135 20.737 17.8913C20.9521 17.981 21.1461 18.1201 21.3587 18.2171C21.5107 18.2863 21.6799 18.3167 21.8382 18.3735C21.9329 18.4075 22.0213 18.4591 22.1227 18.5029C22.4041 19.1627 22.6754 19.8223 22.9449 20.492C22.6545 20.4298 22.4176 20.2625 22.1801 20.0933C22.1217 20.0516 22.0418 20.0401 21.9715 20.0154C21.9297 20.0008 21.8838 19.9941 21.846 19.9728C21.6261 19.8488 21.4069 19.7234 21.1896 19.5948C21.0053 19.4857 20.8264 19.3672 20.6401 19.2616C20.544 19.2072 20.4336 19.1785 20.3357 19.1267C20.0191 18.9591 19.7058 18.7853 19.3901 18.616C19.3433 18.5909 19.2905 18.5771 19.2304 18.5575Z" fill="#D91DB0"/>
<path d="M20.2439 13.9274C20.1042 13.8548 19.9223 13.9163 19.7914 13.7978C19.7666 13.7753 19.6648 13.786 19.6596 13.8016C19.6086 13.9555 19.5042 13.8876 19.3969 13.8572C19.3726 13.9611 19.3439 14.0548 19.3302 14.1506C19.3148 14.2573 19.2618 14.3064 19.1551 14.3185C19.102 14.3245 19.0282 14.3453 19.0056 14.3839C18.9522 14.475 18.8994 14.4772 18.8206 14.4273C18.6396 14.3128 18.4587 14.198 18.2749 14.0881C18.0679 13.9644 17.8579 13.8459 17.6399 13.7232C17.8286 13.2312 18.0246 12.7405 18.2249 12.2515C18.4354 11.7377 18.65 11.2257 18.863 10.7129C18.8692 10.6979 18.8773 10.6836 18.8986 10.6406C19.3542 11.7488 19.7998 12.8331 20.2439 13.9274Z" fill="#DA26C8"/>
<path d="M3.72412 23.0666C3.54414 23.075 3.3723 23.0714 3.20164 23.0839C3.00579 23.0983 2.81143 23.1321 2.61567 23.1484C2.14772 23.1874 1.6793 23.2206 1.21118 23.2576C1.16234 23.2614 1.11421 23.2743 1.05501 23.2838C1.02473 22.9295 1.00585 22.5744 0.984841 22.2195C0.982298 22.1766 0.968234 22.1343 0.961426 22.0802C1.53994 22.0334 2.11615 21.9873 2.69327 21.9668C3.06785 21.9534 3.44382 21.9759 3.81906 21.986C3.93967 21.9893 4.05996 22.0044 4.19192 22.015C4.09462 22.2574 3.98573 22.4989 3.87698 22.7404C3.82878 22.8475 3.78083 22.9546 3.72412 23.0666Z" fill="#F2237D"/>
<path d="M18.5431 16.6027C18.2561 16.6107 18.0217 16.4539 17.7671 16.35C17.5841 16.2754 17.3821 16.2489 17.1938 16.1857C17.0338 16.132 16.8812 16.0566 16.7148 15.99C16.7828 15.7903 16.8614 15.5915 16.9395 15.3925C16.9554 15.352 16.9693 15.3107 16.9928 15.2649C17.0611 15.2895 17.121 15.3189 17.1806 15.3487C17.3952 15.456 17.6204 15.5469 17.8214 15.6755C18.0212 15.8034 18.1989 15.9606 18.293 16.1994C18.349 16.3413 18.4568 16.4628 18.5431 16.6027Z" fill="#D91DB0"/>
<path d="M17.1942 33.3877C17.2523 33.4353 17.3063 33.4895 17.3692 33.5294C17.5627 33.6521 17.5641 33.65 17.4919 33.8636C17.3885 33.9634 17.2855 34.0528 17.1827 34.1425C17.1692 34.1543 17.1575 34.1681 17.1441 34.18C16.9393 34.3619 16.9393 34.3619 17.1381 34.5607C17.1413 34.5639 17.1441 34.5676 17.1477 34.5701C17.3437 34.7077 17.4089 34.8778 17.2771 35.1066C17.1534 35.0325 17.03 34.9507 16.9101 34.8638C16.8099 34.7912 16.7173 34.8177 16.6725 34.9125C16.6229 35.0174 16.5654 34.9978 16.4907 34.9661C16.4701 34.9573 16.4504 34.9464 16.4299 34.9372C16.2531 34.8572 16.1834 34.899 16.1677 35.1055C15.991 35.0682 15.8124 35.026 15.6382 34.9698C15.4867 34.9208 15.3477 34.9324 15.1919 34.9691C15.0368 35.0056 14.8655 34.9805 14.7019 34.9714C14.5905 34.9652 14.4787 34.9464 14.3698 34.9217C14.2637 34.8977 14.2026 34.9385 14.1746 35.034C14.1393 35.1544 14.0513 35.1921 13.9397 35.1968C13.8723 35.1996 13.8044 35.2019 13.7373 35.1967C13.5701 35.1837 13.4418 35.2332 13.3528 35.3871C13.3225 35.4394 13.2528 35.4943 13.1955 35.5011C12.9801 35.527 12.7623 35.5336 12.5131 35.5495C12.5503 35.4801 12.578 35.4409 12.5926 35.3974C12.6074 35.353 12.6295 35.2917 12.6106 35.2613C12.5936 35.2339 12.5252 35.2298 12.4797 35.2306C12.386 35.2322 12.2924 35.2458 12.1986 35.2509C12.0922 35.2567 12.073 35.2079 12.1162 35.117C12.2014 34.9376 12.1764 34.9013 11.9732 34.9004C11.8877 34.9 11.8023 34.8993 11.7169 34.8971C11.7046 34.8968 11.6925 34.8875 11.681 34.8826C11.6719 34.723 11.641 34.5606 11.7997 34.4383C11.792 34.4254 11.7842 34.4125 11.7764 34.3996C11.7018 34.3996 11.6265 34.3932 11.5527 34.4011C11.4408 34.4131 11.3289 34.4424 11.2296 34.3414C11.2833 34.1475 11.3988 34.0372 11.6046 34.034C11.7342 34.0319 11.8646 34.024 11.9929 34.006C12.0557 33.9972 12.1304 33.9751 12.1722 33.9322C12.3271 33.7737 12.4705 33.604 12.6181 33.4384C12.6271 33.4283 12.6377 33.4185 12.6429 33.4066C12.764 33.1268 12.9959 33.1031 13.2504 33.1535C13.4061 33.1843 13.5221 33.1434 13.6626 33.0642C13.8309 32.9692 14.0414 32.9431 14.2371 32.9047C14.3631 32.88 14.4959 32.8912 14.6247 32.8772C14.6715 32.872 14.7293 32.8522 14.7585 32.8186C14.9222 32.63 15.1196 32.6787 15.317 32.7306C15.4795 32.7733 15.6351 32.7892 15.7918 32.6602C15.9548 32.6764 16.0961 32.699 16.2383 32.7116C16.428 32.7285 16.5831 32.7924 16.7157 32.9426C16.8592 33.1051 17.0334 33.2405 17.1942 33.3877Z" fill="#F5094C"/>
<path d="M17.2032 33.3836C17.0334 33.2404 16.8592 33.105 16.7157 32.9425C16.5831 32.7923 16.428 32.7284 16.2383 32.7115C16.0961 32.6989 15.9548 32.6763 15.8012 32.6582C15.7498 32.6125 15.7183 32.5418 15.6691 32.526C15.5421 32.4851 15.408 32.4642 15.2754 32.4438C15.2034 32.4327 15.1726 32.4124 15.1879 32.3318C15.2093 32.2186 15.1632 32.1407 15.0429 32.1162C14.9947 32.1064 14.9483 32.0872 14.9 32.0784C14.7607 32.0529 14.65 32.0029 14.6152 31.8429C14.6079 31.8094 14.5295 31.7771 14.4801 31.7697C14.3578 31.7513 14.2334 31.7476 14.0752 31.7353C14.1296 31.5912 14.1744 31.4725 14.221 31.3442C14.3971 31.1627 14.5867 31.2382 14.7708 31.3077C14.8989 31.3561 15.0025 31.3202 15.09 31.2335C15.1671 31.157 15.2462 31.1422 15.3459 31.1745C15.4695 31.2145 15.5969 31.243 15.7201 31.2842C15.8094 31.314 15.8779 31.2916 15.9379 31.2262C16.0508 31.1034 16.1866 31.0776 16.3418 31.1274C16.5022 31.1787 16.6543 31.2394 16.8368 31.1862C16.9091 31.1651 17.0129 31.2535 17.1028 31.2911C17.2132 31.3373 17.3244 31.3816 17.4345 31.4286C17.5244 31.467 17.6107 31.5155 17.703 31.5462C17.8111 31.5822 17.9241 31.6038 18.0467 31.6317C18.134 31.7116 18.2106 31.7906 18.2847 31.8718C18.3585 31.9527 18.4511 32.0198 18.4228 32.1587C18.4154 32.1949 18.4813 32.253 18.5229 32.2907C18.6158 32.3749 18.7163 32.4507 18.8106 32.5334C18.8819 32.5958 18.9575 32.6559 18.8814 32.7713C18.8684 32.7909 18.9142 32.8665 18.9493 32.8975C19.0533 32.9895 19.1709 33.0663 19.2733 33.1598C19.4082 33.283 19.4042 33.2874 19.2789 33.4337C19.1459 33.4859 19.02 33.541 18.8883 33.5703C18.8184 33.5858 18.7324 33.5719 18.6646 33.5444C18.4991 33.4773 18.3413 33.3916 18.1771 33.321C18.1478 33.3084 18.0988 33.3239 18.066 33.3405C17.9664 33.391 17.8688 33.4458 17.7733 33.5038C17.686 33.5569 17.6109 33.5504 17.5245 33.4937C17.4315 33.4326 17.3478 33.3298 17.2032 33.3836Z" fill="#F30854"/>
</svg>
